<svg xmlns="http://www.w3.org/2000/svg" viewBox="0 0 792.91 792.91"><defs><style>.cls-1{fill:#221f1f;}.cls-2{fill:#632f14;}.cls-3{fill:#f58520;}</style></defs><g id="Layer_2" data-name="Layer 2"><g id="Layer_1-2" data-name="Layer 1"><path class="cls-1" d="M404,.1c7.46.64,15,1.18,22.38,1.82a123.4,123.4,0,0,1,13,1.7c15.7,3.31,24.55,16.42,22.49,32.94-2.21,17.53-12,27.6-29,28.88-8.49.64-17.14-.11-25.68-.37-4.48-.11-9-.48-12.66-.8C395.73,42.9,397,21.47,398.26.1Zm9.83,5.71c-1.34,18.12-2.73,34.69-3.76,51.31-.1,1,1.18,3,2.11,3.15,15.18,2.82,29.9-1,33-21.16a52.33,52.33,0,0,0,.46-12.68c-.77-8.42-4.58-14.92-12.81-17.26-6-1.66-12.15-2.19-19-3.36"/><path class="cls-1" d="M354,0c2.37,5.33,4.58,10.82,7.26,16,7.41,14.39,15.08,28.77,22.59,43.16.67,1.17,1.24,2.4,2.16,4.16-5.5.37-10.6.85-15.59,1.06-.77,0-2-1.33-2.37-2.34a138.18,138.18,0,0,1-5.61-12.63c-1-2.5-2.31-3.57-4.94-3.36-6.12.53-12.19.86-18.32,1.49-1,.16-2.42,1.66-2.88,2.77a121.43,121.43,0,0,0-3.4,12.16c-.77,3.35-2.26,5.16-5.81,4.52a23.39,23.39,0,0,0-3.65.43C330.94,44.92,338.35,22.49,345.81,0Zm4.12,40.34c-3.81-7.62-7.15-14.23-10.5-20.84-.36.11-.82.17-1.18.27-2.27,6.88-4.68,13.86-7.36,21.69,6.69-.37,12.3-.75,19-1.12"/><path class="cls-2" d="M203.23,445.45c-7.67-8.9-14.87-17.32-22.54-26.22,45.64-42.42,91.08-84.68,136.94-127.31,7.56,8.69,15,17.32,22.69,26.17-45.75,42.47-91.19,84.78-137.09,127.36"/><path class="cls-2" d="M283.44,252.38c7.71,8.9,15,17.38,22.69,26.17C260.38,321,214.84,363.33,169,405.91c-7.57-8.74-14.88-17.27-22.59-26.11,45.69-42.47,91-84.73,137-127.42"/><path class="cls-2" d="M600.19,359.28c7.61,8.84,14.87,17.21,22.49,26-45.7,42.53-91.14,84.79-136.94,127.37-7.56-8.74-14.92-17.21-22.64-26.17,45.69-42.42,91.13-84.62,137.09-127.2"/><path class="cls-2" d="M237.4,485c-7.72-9-14.92-17.42-22.49-26.27,45.7-42.42,91.24-84.68,137.14-127.26,7.52,8.8,14.82,17.32,22.44,26.11C328.69,400.14,283.3,442.4,237.4,485"/><path class="cls-2" d="M566.07,319.72c7.56,8.85,15,17.32,22.49,26-45.7,42.47-91.14,84.73-137,127.37-7.46-8.69-14.92-17.22-22.75-26.12,45.8-42.47,91.3-84.68,137.25-127.26"/><path class="cls-2" d="M417.21,433.51c-7.66-8.9-14.92-17.37-22.54-26.16,45.8-42.48,91.35-84.74,137.15-127.15,7.56,8.68,14.82,17.1,22.54,26-45.7,42.31-91.09,84.57-137.15,127.31"/><path class="cls-3" d="M471,313c-6.23,5.92-12.1,11.57-18.17,17.06s-6.17,5.38-11.68-1C425.49,311,409.8,293,394.1,274.83c-20.07-23.13-40-46.31-60.1-69.44-2.37-2.77-4.58-5.54-7.11-8.15-1.8-1.92-1.44-3.2.31-4.85,6.59-6,13.07-12.1,19.56-18.18,1.75-1.75,2.93-1.43,4.37.22,12.77,15,25.48,29.84,38.29,44.71,9.11,10.5,18.42,20.83,27.53,31.33Q439.87,277,462.7,303.71c2.62,3,5.3,5.92,8.34,9.32"/><path class="cls-3" d="M444.25,570.59c-6.64,6.13-13.07,12.2-19.66,18.12-4.89,4.37-4.78,4.15-9-.86-11.27-13.27-22.65-26.43-34-39.65-17.29-20.09-34.74-40.17-52.13-60.27-9.52-11-19-22.11-28.72-33-2.05-2.35-2.05-3.94.16-6,6.38-5.76,12.66-11.56,19-17.43,1.59-1.6,2.78-1.17,4.06.32,5.3,5.86,10.71,11.67,16,17.64,11,12.58,21.82,25.26,32.67,37.89l49.1,56.86,20,22.92c.82,1,1.54,2,2.67,3.41"/><path class="cls-3" d="M360.38,394c21.61,24.84,42.66,49.09,63.7,73.33q28.26,32.54,56.2,65.12c.72.86,1.13,3.31.56,3.73-7.35,7.09-14.82,14-22.64,21.21-5.76-6.61-11.27-12.89-16.72-19.18q-37.37-43.17-74.83-86.6c-8.69-10.07-17.49-20.14-26.19-30.27-4.37-5.11-4.12-4.95.87-9.32,6.44-5.65,12.46-11.73,19.05-18"/><path class="cls-3" d="M387.36,137.29a33.86,33.86,0,0,1,2.73,2.51c13.12,15.29,26.19,30.8,39.26,46,18,20.68,36,41.3,54,62,7.92,9,15.49,18.17,23.41,27.12,2.11,2.35,1.75,3.89-.46,5.86-6.49,5.81-12.92,11.67-19.35,17.7-2.32,2.13-3.35,0-4.58-1.34q-13.2-15.11-26.25-30.27-34.65-40-69.47-80.09c-7.05-8.26-14.05-16.47-21.25-24.68-1.75-2-1.7-3.46.25-5.22,6.49-6.07,12.92-12.09,19.46-18.17.61-.48,1.28-.8,2.26-1.44"/><path class="cls-3" d="M406.06,605.76c-8.19,7.68-16,14.87-24.14,22.49-5.5-6.29-10.7-12.15-15.85-18.12q-22.62-26.22-45.28-52.49C306.48,541.07,292.28,524.5,278,508c-5.14-6-10.39-12.05-15.74-17.91-1.75-2-1.81-3.35.25-5.27,6.28-5.71,12.66-11.62,18.73-17.54,2-2,3.25-1.91,5.1.11q11.73,13.83,23.77,27.39c12.15,14.07,24.45,28.14,36.64,42.26q19.85,23.1,39.73,46.25c6.33,7.36,12.71,14.61,19.56,22.49"/><path class="cls-3" d="M408.82,371.16c-7.77-8.84-15.13-17.05-22.39-25.52Q347.69,300.88,309,256c-6.8-7.78-13.44-15.56-20.18-23.34-1.49-1.7-1.64-3.09.11-4.69q9.87-8.86,19.6-18.06c1.75-1.71,3.09-1.6,4.74.31,14.15,16.63,28.3,33.26,42.66,49.78,14.15,16.41,28.51,32.72,42.81,49.08,10.76,12.36,21.51,24.83,32.11,37.36.67.74.73,3.14.11,3.78-7.16,7-14.41,13.8-22.13,21"/><path class="cls-1" d="M239.22,23.76c13.89-3.15,27.74-7.36,41.84-9.17,15.18-2,26.45,8.05,30.82,24.83,3.91,15.09-1,27.72-15.13,34.33-9.62,4.52-20.17,6.76-30.31,10-2.83.91-5.71,1.54-8.18,2.24C252,65.38,245.7,45,239.22,23.76M256,25.3c.2,1.18.2,1.71.36,2.24,4,13.22,7.82,26.43,11.83,39.6,3.4,11,4.22,11.4,14.93,7,8.69-3.47,14.66-9.38,14.71-19.67.06-9.64-2.52-18.86-8.9-26.06a21.6,21.6,0,0,0-10.75-6.18c-7.52-1.65-14.83.43-22.18,3.09"/><path class="cls-1" d="M667.28,196.23c-2.06-4.53-4.12-8.9-6.08-13.16,21-8.32,42-16.58,63.25-24.89,1.85,4.26,3.91,8.63,6.07,13.32-8.49,3.15-16.93,6.29-26,9.7,2.41,5.81,4.52,11.19,6.94,16.52,4.68,10.18,4.79,10.18,14.82,6.18,5.2-2.07,10.4-4.37,15.75-6.66,2.11,4.53,4.12,9.06,6.18,13.54l-63.15,24.73c-1.85-4.16-4-8.74-6-13.33,10.19-3.83,20.33-7.67,31.08-11.83-4.06-9-8-17.58-12-26.64-10.55,4.31-20.68,8.36-30.82,12.52"/><path class="cls-1" d="M135.27,157.68c-15-16.25-29.85-32.29-45-48.6,6.9-5.49,14-11.51,21.41-16.94a29.86,29.86,0,0,1,9.67-4.42c7.16-2.14,12.77,1,17.14,6.82,3.76,5.11,3.55,10.92-.2,17.42-.57.91-1.14,1.87-2,3.36,13,3.36,25.68,6.61,38.85,10.07-4.32,3.62-8.18,7-12.3,10.13-.77.58-2.52,0-3.8-.32-9.88-2.83-19.66-5.76-29.54-8.58a29.7,29.7,0,0,0-3.91-.8c7.46,7.78,14.41,15,21.51,22.27-4.38,3.52-8.24,6.72-11.89,9.59m-12.4-34.05c4.37-3.52,8.08-6.92,7.41-12.79-.62-5.17-6.49-11.51-11.48-12.57-5.56-1.23-9.42,2.08-13.79,5.54,6.12,6.82,11.94,13.16,17.86,19.82"/><path class="cls-1" d="M609.14,126.62c-6.08-1.17-8.08-5.59-9.47-11.45C596.17,99.5,592,84,588,68.43c-.31-1.33-.83-2.56-1.6-4.85-8,13.7-15.59,26.59-23.21,39.54-2.31-1.28-4.47-2.39-6.43-3.41,11.06-18.65,22.08-37.14,33-55.63,5.76,1.81,9.72,4.85,11.27,12.15,2.93,14.92,7.2,29.57,11,44.34.31,1.33.72,2.61,1.49,4.9,7.72-13.06,14.88-25.21,22.29-37.68,2.26,1.17,4.42,2.24,6.63,3.3-11.16,18.6-22.23,37-33.34,55.53"/><path class="cls-1" d="M23.77,340.18c16.77,1.28,32.32,2.5,48.17,3.78-.31,2.45-.52,4.64-.72,6.82Q37.1,348,3.34,345.08c-1-6.23,1-10.44,6.59-14,13.53-8.8,26.5-18.44,39.67-27.77,1.13-.8,2.16-1.65,4.22-3.25-16.11-1.28-31.13-2.5-46.26-3.78.31-2.61.56-4.85.82-6.88,22.8,2,45.34,3.89,67.83,5.76.87,5.22-1,8.42-5.36,11.35C56.19,316.41,41.93,326.85,27.53,337c-1,.75-1.86,1.55-3.76,3.15"/><path class="cls-1" d="M0,419.09l.05-15.23c3.6.31,7.15.69,10.55.79,13.28.54,26.45,1.6,39.78,1.39,9.21-.11,14.41-5.76,15-14.5.72-9.11-3.71-16.09-12.61-18a117.72,117.72,0,0,0-20.18-2.24c-8.95-.42-17.85-.21-26.7-.21H1.85l0-8.58c4.94.37,9.68.8,14.31,1,11.22.64,22.44.86,33.55,1.82C63,366.55,71,375.88,71,389.68a54.42,54.42,0,0,1-.61,9.64c-2.22,13.59-9.06,19.83-22.23,20.1-12.1.21-24-.22-36.08-.33H0"/><path class="cls-1" d="M755.33,238.59c1.08,5.33,1.95,9.91,2.93,14.71-10.91,1.55-21.82,3-32.52,4.79a112.67,112.67,0,0,0-17.86,4.11c-7.92,2.77-10.5,7-10.24,14.33.31,8.1,4.89,15.35,12,16.68a46.87,46.87,0,0,0,16.62.05c12.77-2,25.48-4.74,38.7-7.35.47,2.56,1.08,5.28,1.75,8.37-16.36,2.45-32.16,5.28-48.16,7.19-11.94,1.49-21.46-5.17-25-17.16a58.52,58.52,0,0,1-2.37-17.42c.1-8.53,4.37-15,12.66-17.16,11.53-3,23.21-5.17,34.74-7.68,5.45-1.17,10.9-2.29,16.67-3.46"/><path class="cls-1" d="M490.31,74.86c5.05-4.91,9.78-9.33,14.36-14.07C515.84,49.07,527.11,37.34,538,25.3c2.78-3.15,4.83-1.65,7.56-1s2.37,2.93,2.42,4.95l1.8,61.45c0,1.33,0,2.72,0,4.37-4.94-1.6-9.52-2.88-14-4.53a4.35,4.35,0,0,1-1.59-3.2c-.05-4.69.1-9.32.41-14,.2-2.51-.77-3.74-3.14-4.59-5.35-1.6-10.6-3.46-15.85-5.49-2.47-.85-4.32-.64-6,1.76s-4,4.64-5.87,7c-5,5.76-5,5.76-13.33,2.83M534,42.08C528.4,47,522.79,52,516.35,57.65c6.69,2.23,12,4,17.55,5.86Z"/><path class="cls-1" d="M657.92,174.14c-3.6-4.1-7-7.94-10.81-12.2,2.62-4.16,5.46-9,8.49-13.8,1.39-2.08,1.55-3.52-.36-5.39-4.17-3.94-7.82-8.31-12-12.2a5.47,5.47,0,0,0-4.53-.91c-5.81,2-11.47,4.37-16.88,6.51-2-2.08-3.81-3.79-5.91-5.92,1.33-.48,2.57-1,3.75-1.39,20.28-7,40.6-13.74,60.93-20.78,6.23-2.19,6.18-2.34,10.71,3.2C680.25,132,669.19,153,657.92,174.14m13.53-54.52a13.85,13.85,0,0,1-.92-1.17c-7.31,2.56-14.72,5.12-22.6,7.83,4.38,4.64,8.13,8.64,12.46,13.22,3.86-7.08,7.51-13.48,11.06-19.88"/><path class="cls-1" d="M772.6,332c.87,6.71.82,6.6-5.15,9.27q-28.25,12.47-56.45,25c-1.7.75-3.45,1.49-5.71,2.45-.41-4.9-.93-9.27-1.08-13.69,0-.86,1.44-2.19,2.36-2.67,4.43-1.81,8.91-3.57,13.49-5,3-1,4.06-2.66,3.75-5.86-.61-5-1-9.86-1.23-14.81-.1-2.51-1-3.63-3.55-4.16-5.82-1.33-11.58-3-17.55-4.48-.15-2.66-.36-5.16-.52-7.72,24.09,7.3,47.76,14.44,71.64,21.69m-20.69,1.65c-.1-.53-.15-1.07-.21-1.55-7.46-2.13-14.92-4.26-23.15-6.66.46,6.24.87,11.51,1.34,17.59,7.87-3.41,14.92-6.4,22-9.38"/><path class="cls-1" d="M147.39,654.22c2.22.58,4.22.74,5.51,1.65,7.26,5.27,14.41,10.76,21.77,16.36-1.08,1.23-2,2.18-3,3.3-6-4.79-11.83-9.48-18-14.44-4.89,5.6-9.62,11-14.77,16.9,5.66,4,11.12,8,16.83,12.2-.87,1-1.8,2-2.78,3.09-5.45-4.26-10.81-8.37-16.36-12.74-5.82,6.66-11.27,13.06-17,19.72,6.54,4.58,12.76,9,19.3,13.48-1.13,1.33-2.06,2.51-3,3.68-8.34-6.39-16.52-12.52-24.71-18.71,11.84-13.53,23.62-26.91,35.25-40.28a5.76,5.76,0,0,0-.72-.91c-1.54.59-3.13,1.17-4.73,1.87,3.09-17.27-15.34-30.64-30.72-24.94a47.25,47.25,0,0,0-18,12.09c-11.79,12.26-8.86,28.41,6.43,35.6,2.93,1.39,6.07,2.45,9.26,4.59-1.85.42-3.81,1.43-5.45,1.06-11.63-2.34-24.65-19.93-23.52-32.19a22.87,22.87,0,0,1,3.29-10.23c14-20.67,39.27-25.58,57-4.26,3.45,4.21,5.87,9.32,8.23,13.11"/><path class="cls-1" d="M87.19,170.42,110,182.51c3.55-6.44,6.89-12.62,10.34-18.92,2.32,1.23,4.48,2.35,7,3.63-6.59,10.39-13,20.62-19.2,30.53C88.32,187,68.71,176.39,48.85,165.62q9.1-14.72,18.78-30.37c2.22,1.11,4.38,2.23,7,3.67-4,5.76-7.92,11.46-12.3,17.8,6.49,3.57,12.66,6.93,19.14,10.55,3.71-6.39,7.16-12.36,10.81-18.54,2.42,1.38,4.53,2.56,6.9,3.89-4,5.86-7.82,11.62-11.94,17.8"/><path class="cls-1" d="M173.38,107.29c2,1.22,3.19,2,4.21,2.56A15.55,15.55,0,0,0,196,108c2.62-2.34,4.17-5.27,3.19-9s-3.19-6.35-6.9-6.93a63.5,63.5,0,0,0-8.95-.38c-6.33,0-12.61.43-18.79-.31-7.35-.86-11.88-6.08-14-13.12s.36-12.79,5.19-17.63a31.51,31.51,0,0,1,18.12-9.12c3.14-.48,4.89.59,5.35,3.89a61.11,61.11,0,0,0,2,6.34c-1.85-.74-2.83-1.11-3.86-1.54-5.41-2.24-10.45-1.33-15.13,2.13-2.68,1.92-4.74,4.85-3.35,7.89A13.72,13.72,0,0,0,165,76.75c2.52,1.23,5.87.69,8.8.59,5-.21,10.09-1,15.13-1.12,8.8-.16,14.77,4.48,18.22,12.58,3.29,7.78,1.33,14.81-4.28,20.62a36,36,0,0,1-21.56,11c-2.11.27-3.29-.1-4.06-2.4-.93-3.3-2.32-6.44-3.91-10.76"/><path class="cls-1" d="M20.85,242.18c1.34-4.32,2.47-8.42,4.07-12.2.51-1.23,2.57-2.24,3.91-2.35,15.18-.9,30.36-1.54,45.49-2.23,1.08-.06,2.11-.17,3.19-.27.15-.37.36-.75.51-1.12Q57.49,209.07,36.8,194c.72-2.45,1.5-4.85,2.32-7.41,19.09,14.55,38.08,29,57.38,43.81a39.86,39.86,0,0,1-1.75,5.11,4.13,4.13,0,0,1-2.52,2.13c-23.62,1.6-47.35,3-71.38,4.53"/><path class="cls-1" d="M757.19,428.05c7.51-4,11-10,10.9-18.28-.05-9-4.32-15.94-12.45-18.92a48.6,48.6,0,0,0-34.58-.16c-12.81,4.74-17.19,19.93-9.88,32.77,1,1.87,2.31,3.68,3.6,5.71-6.28.37-8.28-.8-10.19-6.08a44.6,44.6,0,0,1-.2-29.15,26.19,26.19,0,0,1,13.68-16.09c11.74-5.86,24-6.56,36.08-1.49,16.05,6.6,23.31,24.35,18.58,44-2.42,10.13-2.42,10.13-12.25,8.47-1.08-.16-2.21-.53-3.29-.74"/><path class="cls-1" d="M543.2,700c15.23,9.43,30.52,18.87,46.52,28.78l.1-52.81a5.92,5.92,0,0,1,.88-.27q18.13,23.75,36.54,47.86c-2.27,1.27-4.27,2.45-6.54,3.67-8.33-11.3-16.77-22.64-25.21-34a4.7,4.7,0,0,0-.88.43l-.1,46c-13.33-8.21-27-16.63-40.76-25.15-.41.32-.77.69-1.13,1q8.49,18.78,17.19,37.78c-1.6.75-3.25,1.6-5,2.45-7.51-18.49-15-36.77-22.48-55.05Z"/><path class="cls-1" d="M740.3,565.14c-15.85,3.52-31.75,7.09-47.65,10.61l-.16,1.55c13.54,4.58,27.18,9.27,41.12,14-.36,1.6-.77,3.25-1.18,5.12-19.71-7.46-39.16-14.87-58.62-22.33,0-.32,0-.75-.1-1.07,17.91-3.89,35.66-7.83,55-12-14.46-12.47-28-24-41.48-35.76.11-.32.21-.64.31-.91,20.53,2.51,41.12,5,62.17,7.57-.57,2.46-1.14,4.59-1.7,6.93-14.77-2-29.33-4-44-6-.26.54-.46,1.07-.72,1.66q18.6,15.42,37,30.63"/><path class="cls-1" d="M491.7,779.05c-21-.48-34.06-15.61-31.9-35.33a22.88,22.88,0,0,1,8.59-15.93c11.37-9.23,24.34-12.42,38.49-8.21,11.17,3.36,19.1,14.49,20.07,26.8,1.14,13.06-4.83,21.64-15.43,27.5a43.65,43.65,0,0,1-19.82,5.17m27.23-28.25a38.07,38.07,0,0,0-7.31-20.24c-9.37-13.06-32-12.26-40.76,1.38a17.36,17.36,0,0,0-2.16,5c-2.47,12.52.62,23.66,9.31,32.56,8.19,8.31,18.07,7.3,27.9,3.46,8.75-3.51,13.07-10.23,13-22.17"/><path class="cls-1" d="M360.79,792.91c-4.89-1-9.93-1.39-14.67-3-12.6-4.21-19.29-14.66-18.73-28.08.57-14.45,7.93-24.36,20.69-28.14,8.8-2.61,17.55-2.13,26.25.58,13.07,4,20.17,14.07,20.12,27.93-.05,13.37-7.62,24.3-20.28,28.13-4.22,1.34-8.75,1.71-13.38,2.62m25-33.1h-.36c0-.74-.05-1.38-.1-2.13-.62-12-6.23-19.24-16.88-21.85-12.35-3-23.26.8-28.61,10.61-4.17,7.46-4.53,15.56-3.25,23.76,1.5,9.7,7,15.73,16.06,18.17,16.16,4.38,29.23-3.19,32.16-18.91.62-3.15.67-6.4,1-9.65"/><path class="cls-1" d="M308.39,754.81c1.19.58,2.42,1.12,3.61,1.76,4.52,2.34,8.18,5.43,8.18,11.13-.05,6.24-2.52,11.68-8.13,14.07a29.81,29.81,0,0,1-12.66,2.35c-7.41-.59-14.77-2.35-22-3.57,4.43-19.24,8.7-37.89,13.18-57.4,8.54,2.13,17.13,3.79,25.32,6.56,7.1,2.4,9.31,6.5,8.64,12.52s-5.14,10.45-11.94,11.4a35.87,35.87,0,0,1-4.06.38,4.28,4.28,0,0,0-.11.8M297,781.45c2.42-.58,4.89-.8,7.15-1.7,5.41-2,7.57-6.61,8-12.1.36-5.11-2.11-8.9-6.59-10.66-3.91-1.6-8.08-2.29-12.14-3.36-2.27-.69-3,.43-3.5,2.67-.77,4.32-1.8,8.53-2.68,12.79-2.16,10.44-1,11.83,9.73,12.36m-5.09-32c6,2.66,12.14,3.25,16.82,1.71s7.62-5.44,7.88-10.72c.2-4.42-1.7-7.83-6.49-9.69a54.08,54.08,0,0,0-10.29-2.51c-.82-.11-2.68.64-2.88,1.39-1.8,6.55-3.45,13.26-5,19.82"/><path class="cls-1" d="M82.12,264.19c-.88,4.69-1.75,9.6-2.73,14.39-22.54-3.73-45-7.51-67.42-11.19.88-4.63,1.81-9.54,2.73-14.44q33.59,5.6,67.42,11.24"/><path class="cls-1" d="M242.18,91.13c-4.64,1.87-9.58,4-14.36,5.92-9.16-19.4-18.37-38.69-27.64-58.41,4.48-1.86,9.42-3.94,14.26-6,9.21,19.45,18.37,38.85,27.74,58.46"/><path class="cls-1" d="M256.8,713.7c1.7.85,3.09,1.44,4.43,2.13-8.34,18-16.73,35.65-25.27,53.83-7.62-19.88-15.08-39.39-22.64-58.89-.47,0-.83,0-1.34,0-5.87,13.37-11.89,26.86-17.86,40.5-1.7-.64-3.29-1.28-5.09-2,8.59-17.91,17.13-35.6,26.09-54.25,7.82,20.08,15.23,39.22,22.69,58.35h1.39c5.82-13,11.63-26.17,17.6-39.65"/><path class="cls-1" d="M451.18,771c-1.7-13.91-3.45-27.82-5.3-42l5.05-.26c1.95,19.5,3.91,38.79,5.91,58.35-16.88-13.75-33.55-27.34-50.27-41a14.17,14.17,0,0,1-1.29.74c1.8,14.23,3.5,28.46,5.3,43.06-2,.27-3.55.48-5.4.69-1.8-19.61-3.55-38.84-5.41-59.36,17.14,14,33.56,27.23,50,40.55a13.93,13.93,0,0,1,1.44-.74"/><path class="cls-1" d="M41.31,604.67c-.83-1.55-1.39-2.93-2.32-4.58C58.39,592.47,77.69,585,98,577c-9,19.61-17.45,38.16-25.89,56.7.26.43.51.86.82,1.28,13.85-5.86,27.64-11.72,41.74-17.74.67,1.59,1.34,2.87,2.06,4.31-19.4,7.73-38.5,15.45-58,23.23,8.9-19.34,17.55-38.1,26.3-56.91-.31-.43-.57-.85-.88-1.28-14.15,6-28.2,11.94-42.81,18.12"/><path class="cls-1" d="M648.23,623.7c1.34-2.34,2.42-4.32,3.6-6.4,9.42,4.59,18.58,9.33,27.9,13.54a81.3,81.3,0,0,0,15.43,5.49c7.26,1.65,13.9-2.24,18.27-10,3.61-6.29,3.86-13.05-.46-17.74a37.54,37.54,0,0,0-10.45-7.89c-10.6-5.43-21.51-10.44-32.78-15.88.72-1.33,1.39-2.61,2.52-4.74,13.49,7.35,27.07,14.12,40,22,7.46,4.47,9.62,12.79,6.48,21.21-6,16.62-17.44,24.88-34.53,17.48-12-5.17-23.72-11.25-36-17.11"/><path class="cls-1" d="M613.86,658.3c20.07,9.7,40.14,19.35,60.31,29.15-5.55,6-5.55,5.87-11.73,2.46-4.68-2.62-9.42-5.17-14.3-7.36a6,6,0,0,0-5.1.43c-4.48,3-8.54,6.55-12.92,9.7-2,1.44-2.21,2.82-1.33,5,2.47,6.55,4.83,13.16,7.25,19.87-1.28,1-2.37,2-4.11,3.31-6.34-20.73-12.66-41.14-19-61.55a8.08,8.08,0,0,1,.92-1m27.89,21c-7.66-3.62-14.51-6.87-22.38-10.55,2.62,8.21,4.89,15.08,7.25,22.65,5.2-4.21,9.78-7.78,15.13-12.1"/><path class="cls-1" d="M77.89,508.26c.67,2.62,1.08,4.91,1.7,7.36q-23.48,14.31-46.94,28.46c.06.42.11.74.16,1.12,5.15.85,10.24,1.86,15.34,2.6,12.29,1.82,24.54,3.58,37,5.07,3.14.43,3.85,1.86,3.29,5.38-6.84-1.12-13.69-2.18-20.48-3.36-13.07-2.13-26.09-4.37-39.22-6.29-3.7-.53-6.27-1.49-5.86-6.44,18-11.14,36.43-22.49,55-33.9"/><path class="cls-1" d="M32.36,455.21a14.82,14.82,0,0,1,0,29.63c-7.87,0-14.1-6.45-14.2-14.87,0-8.21,6.22-14.76,14.2-14.76"/><path class="cls-1" d="M739.2,486.44c-7.83,0-14.16-6.77-14.11-15a14.35,14.35,0,0,1,14.41-14.65c7.83.1,14.36,7,14.26,15S747,486.49,739.2,486.44"/><path class="cls-1" d="M696.53,653.72c1.13.91,2.21,1.81,3.45,2.88-6.9,7.88-13.69,15.56-20.54,23.23-16-12.1-31.75-24.09-48-36.34,1.49-1.65,3-3.46,4.84-5.54,1.44,1.17,2.93,2.18,4.22,3.25,12.61,9.59,25.37,19.18,37.93,28.88,2.21,1.71,3.7,1.71,5.45-.53,4-5.22,8.13-10.23,12.61-15.83"/><path class="cls-1" d="M90.36,560.62c.87,2.13,1.59,4.16,2.52,6.45-19.56,5.86-39,11.72-58.72,17.75-.77-2.08-1.6-4.27-2.47-6.51l58.67-17.69"/><path class="cls-1" d="M199,688.07c2,1.12,4.06,2.24,6.27,3.41-10.24,16.57-20.58,33-31,49.83-1.85-1.07-4-2.24-6.12-3.52,10.34-16.57,20.58-33.09,30.88-49.72"/><path class="cls-1" d="M687.08,98.68c8.54,0,16.06,0,23.52,0A5.08,5.08,0,0,1,714,99.9c1.14,1.34,2.63,3.41,2.27,4.75s-2.47,2.77-4.07,3.09-3.81-.38-5.55-1c-5-1.6-9.83-3.36-14.72-5.12a42.3,42.3,0,0,1-4.84-3"/><path class="cls-1" d="M784.93,479.93c-1.34-3.83-2.73-7.78-4.12-11.61h-.92l-.06,11.08h-1.49c0-4.8,0-9.59.1-14.39,0-.37,1.09-1.23,1.24-1.17.77.48,1.7,1.06,2,1.86,1.29,3.57,2.37,7.14,3.76,11.09,3.45-3.89,2.16-10.39,7.52-14l-.06,16.58-.87.1,0-11.08a4.92,4.92,0,0,1-1.29-.26c-1.44,3.94-2.83,7.83-4.37,11.72a13.86,13.86,0,0,1-1.44.05"/></g></g></svg>