<svg xmlns="http://www.w3.org/2000/svg" viewBox="0 0 1077.73 288.39"><g id="Layer_2" data-name="Layer 2"><g id="Layer_1-2" data-name="Layer 1"><path d="M554.41,288.07V.08h6q71,0,142,.09a23.81,23.81,0,0,1,9.13,2c15.42,6.61,30.68,13.6,46.11,20.17a10.62,10.62,0,0,1,6.41,7c5.6,16,11.49,31.86,17.09,47.84a27.47,27.47,0,0,1,1.47,8.72q.27,59.1.26,118.2a29.77,29.77,0,0,1-1.59,9.26c-5.15,15.16-10.38,30.29-15.94,45.29a12,12,0,0,1-5.6,6.08c-16.2,7.58-32.57,14.83-48.93,22.08a16.54,16.54,0,0,1-6.41,1.52q-73.5.12-147,.05C556.64,288.3,555.91,288.19,554.41,288.07Zm58.75-58.31h6.52c22.8,0,45.61-.13,68.41.06,10.73.09,18.71-6.77,28-10.23a2.08,2.08,0,0,0,1-1.24c2.36-8.16,6.47-16.28,6.67-24.5.76-32.08.87-64.21-.1-96.28-.28-9.29-5-18.45-7.68-27.65A2.11,2.11,0,0,0,715,68.73c-8.55-3.35-16-9.49-25.94-9.37-23.18.28-46.36.09-69.54.09h-6.32Z"/><path d="M0,144.33C0,125.48,0,106.62.1,87.76a18.25,18.25,0,0,1,1.8-8c12.92-25.2,26.1-50.26,39-75.48C42.61,1,44.58,0,48.21,0c33.66.14,67.33.05,101,.15a19.9,19.9,0,0,1,7.55,1.5C172.56,8.29,188.34,15,204,22a11.13,11.13,0,0,1,5.46,5.55q10.71,28.77,20.69,57.8a11,11,0,0,1-.84,8.12c-9.32,15.93-18.93,31.69-28.67,47.37-1.73,2.79-1.73,4.71,0,7.46,9.67,15.5,19,31.19,28.76,46.67a9.49,9.49,0,0,1,.92,9.32c-6.54,18-12.71,36.16-19.27,54.16a10.53,10.53,0,0,1-4.86,5.35c-16.49,7.86-33.09,15.48-49.73,23a17.51,17.51,0,0,1-7,1.43c-33.85.09-67.7,0-101.55.14-3.44,0-5.22-1-6.82-4.11-13-25.37-26.24-50.61-39.26-76A17.1,17.1,0,0,1,.09,200.9C0,182.05,0,163.19,0,144.33Zm58.55-.11h.19c0,15.31-2.25,31.08.71,45.79,2.44,12.12,11.06,23,16.94,34.44a4.61,4.61,0,0,1,.22.51c1.11,3.35,3.41,4.14,6.86,4.08,13.28-.21,26.64-.94,39.83.15,13.6,1.12,25.25-3.19,36.75-9.21,5-2.61,7.85-12.49,4.92-17.28-10.72-17.5-21.3-35.08-32.3-52.4-2.72-4.29-2.49-7.27.14-11.47,10.73-17,21-34.35,31.51-51.56,2.45-4,.61-17.33-3.58-19.18-7.9-3.49-16.18-7.65-24.55-8.26-17.3-1.26-34.77-.28-52.16-.46-3.8,0-6.06.91-7.83,4.55-5,10.22-10.5,20.16-15.53,30.36a20.41,20.41,0,0,0-2,8.48C58.45,116.58,58.57,130.4,58.57,144.22Z"/><path d="M841.92.3h58.36V7q0,98.33-.08,196.64c0,4.35.85,7,5.28,9,11.21,5,21.58,12.88,33.24,15.66,11.51,2.75,24.17.85,36.32.58a27.45,27.45,0,0,0,10.63-2.46c9.31-4.31,18.28-9.36,27.6-13.63,4.33-2,5.84-4.41,5.83-9.25Q1018.83,105.75,1019,8V.45h58.4c.09,1.94.24,3.75.25,5.56q0,117.09.1,234.18c0,4.11-1.24,6.18-4.93,8.05-24.6,12.51-49,25.35-73.62,37.91a19.59,19.59,0,0,1-8.46,2.07q-31.43.25-62.85,0a16.94,16.94,0,0,1-7.41-1.77c-24.91-12.74-49.71-25.7-74.62-38.44-3.06-1.57-4.27-3.36-4.27-6.85q.15-118.21.09-236.42C841.66,3.47,841.8,2.18,841.92.3Z"/><path d="M315.81,214.92l-50-30.81c7.34-12.18,14.34-24,21.61-35.67,1.81-2.92,1.87-5,0-7.95-7.14-11.33-13.94-22.87-21.24-34.93l50-31c6.21,10.22,12.92,19.88,18.12,30.29,4.09,8.18,9.37,10.87,18.34,10.17,11.29-.88,22.71-.21,34.48-.21v59.37H381.4c-12.15,0-24.3.12-36.44-.07a6.68,6.68,0,0,0-6.67,3.73c-6.32,10.77-12.83,21.42-19.28,32.1C318.06,211.48,317,213,315.81,214.92Z"/><path d="M495.14.55V59.06H349.56V.55Z"/><path d="M495,288.13H349.59V229.31H495Z"/></g></g></svg>