<svg xmlns="http://www.w3.org/2000/svg" viewBox="0 0 1081.59 440.39"><defs><style>.cls-1{fill:#fff;}.cls-2{fill:#da0c57;}</style></defs><g id="Layer_2" data-name="Layer 2"><g id="Layer_1-2" data-name="Layer 1"><g id="GGKwxd"><path class="cls-1" d="M851.75,340c1.69-6.58,3.17-11.8,4.35-17.08,1.58-7,.84-8.3-6.08-10.14a87.71,87.71,0,0,0-37.35-2.17c-20.94,3.44-37.1,13.63-47.37,32-10.39,18.57-10.39,38.32-4,58.32,5.11,16,15.86,27.06,31,33.43,7.12,3,15.05,4.52,22.77,5.54,12,1.6,23.78-.58,35.33-3.87,3.33-1,7.22-2.43,6.42-6.68-1.22-6.53-.66-13.68-5.63-19.76-5.26,1.06-10.54,2.25-15.87,3.19-18.72,3.27-40.22-7-43.48-30.2-4.56-32.44,19.13-52.81,47.94-45C843.29,338.49,847,339,851.75,340Z"/><path d="M851.75,340s-8.46-1.48-12-2.44c-28.81-7.81-52.5,12.56-47.94,45,3.26,23.16,24.76,33.47,43.48,30.2,5.33-.94,10.61-2.13,15.87-3.19,5,6.08,4.41,13.23,5.63,19.76.8,4.25-3.09,5.73-6.42,6.68-11.55,3.29-23.36,5.47-35.33,3.87-7.72-1-15.65-2.54-22.77-5.54-15.13-6.37-25.88-17.4-31-33.43-6.37-20-6.37-39.75,4-58.32,10.27-18.35,26.43-28.54,47.37-32A87.71,87.71,0,0,1,850,312.75c6.92,1.84,7.66,3.14,6.08,10.14C854.92,328.17,851.75,340,851.75,340Z"/></g><g id="GGKwxd-2" data-name="GGKwxd"><path d="M436.69,264.7h41.62c13.7,41.12,28,81.71,37.71,126.4,11-44.45,26.14-85.11,40.41-126.87h41.13s9.63,166.94,9.63,169.77c-10.31,1.93-20,.49-30.29,1-.9-9.43-6.53-126.93-7.18-131.86l-43,129.25H501.12c-13.43-43.71-28.57-87.07-39.24-131.89-.11,1.34-6.34,126-7.22,133.92H426.31C426.31,428.09,435.94,275.29,436.69,264.7Z"/><path d="M219.43,320.09c0-13.06.17-65,.17-65h34.15V434.65H223.09l-.37-14.95s-4.91,4.62-7.57,6.89c-23.45,20-56.26,13.76-73.58-11.47a59.12,59.12,0,0,1-10.71-33.45c-.09-9.49-.6-18.95,1.87-28.41,3.94-15.15,11.74-27.4,24.66-36.16,7.12-4.82,15-8.18,23.84-7.88,6.43.21,13.16-.29,19.2,1.46C207,312.57,212.85,316.72,219.43,320.09ZM163.91,374c-1.29,9.1,1.2,17.78,6.22,25.83,5.68,9.11,17.73,14.09,28.42,11.78,10.22-2.21,19.9-11.53,20.43-21.7.55-10.75,1.77-21.55.41-32.38-1.4-11.07-8.93-21-18.74-22.9-12.52-2.39-24.1,1-30.89,12.5C164.89,355.36,163.1,364.17,163.91,374Z"/><path d="M285.44,311.72h29.78s.63,42.85.89,60.27A150,150,0,0,0,318,393.25c1.92,12,10.76,19.51,21.79,18.48,13.33-1.24,21.74-9.58,22.89-20.73.7-6.77.21-13.65.22-20.48,0-19.12-.26-58.8-.26-58.8h31.53L395.63,435H369.48l-3.3-16c-8.59,12.63-21.49,17.57-35.53,19.63C314,441,295.19,429.48,289.1,413.28c-2.23-5.95-4.07-12.44-4.19-18.73C284.42,368.26,285.44,311.72,285.44,311.72Z"/><path d="M700.65,353.36c1.15-12.2-5.54-20.31-17.35-21.19-13.22-1-25.77,1.23-37.62,8.33a130.27,130.27,0,0,1-7.88-19.81s17.33-9.45,26.52-10.6c12.41-1.56,25.08-2.26,37.61,1,14.09,3.64,23.21,12.49,28.21,25.67a61.78,61.78,0,0,1,4.27,22.92c-.23,15.37-.18,30.76,0,46.14.1,9.14.63,18.29,1,27.61-3.54,1.19-22.18,2.63-25.43,1.31a7.94,7.94,0,0,1-4-4.06c-.82-2.13-.62-4.66-1-8-2.42,2.09-4.21,3.87-6.22,5.36-15.66,11.67-35.89,14.19-53.34,3.63-18.2-11-20.81-38.78-9.24-54.18,9.43-12.55,22.66-18.13,37.33-20.86C682.49,354.94,691.62,354.4,700.65,353.36Zm2.4,22.41c-11.79-1.12-22.33.32-32.1,5.6-8.26,4.46-11.68,12.21-9.44,20.44,3,10.94,8.46,13,18,12.34,1-.08,2,0,3.06-.11,10-1,19.46-9.8,20.42-19.71C703.52,388.34,703.05,382.25,703.05,375.77Z"/><path d="M112.36,383.42H31.2c1.85,12.71,6.9,22.21,19.15,26.49,9.39,3.28,16.72,2.9,28.93,2.59,5.4-.31,22.65-3.9,22.65-3.9-.69-.11,1.66,13,5.09,20.65a62.9,62.9,0,0,1-26.85,7.56c-7.84.36-15.7.29-23.56.26C30.53,437,6.23,418.13,1.29,389.27c-3.48-20.29,0-38.78,11-55.42C22.79,318,38,309.08,57.86,309.05c10.75,0,21,.93,30.51,6.49,13.95,8.17,20.9,21.09,24.13,36.2,1.48,6.91,1.75,14.14,2,21.24C114.58,376.18,113.22,379.42,112.36,383.42ZM30.9,359.84H84.08c-.8-4.24-1.13-7.88-2.19-11.3-5.55-18-26.15-23.29-40.09-10.65C35.32,343.77,33.08,351.34,30.9,359.84Z"/></g><path class="cls-2" d="M1078.73,100.67a95.16,95.16,0,0,1-14.82,52.45c-11.09,17.63-10.18,33.44.76,51.38,23.09,37.87,22.54,77.22-1.61,114.19-23.21,35.55-57.88,52.27-100.15,46.89-43.84-5.57-73.25-31.2-88-73.05-7-19.79-20.63-28.07-39.89-23.69-74.33,16.9-142.08-49.48-126.75-124.27,14-68.42,82.16-96.76,127.54-82.7a100.4,100.4,0,0,0,20.5,3.61c16.85,1.5,31-3.27,39.65-19C919.71,3.17,968.06-6.81,1006.7,4.05,1049.13,16,1078.69,55.89,1078.73,100.67Z"/></g></g></svg>