<svg xmlns="http://www.w3.org/2000/svg" viewBox="0 0 631.73 776.04"><defs><style>.cls-1{fill:#00539e;}</style></defs><g id="Layer_2" data-name="Layer 2"><g id="Layer_1-2" data-name="Layer 1"><path class="cls-1" d="M564.5,344.39c-16,4.18-24.68,11.43-27.42,14,7-12.29,13.55-25.56,21.78-41.06A71.22,71.22,0,0,1,585.62,289c19.71-11.7,36.12-10.44,36.12-10.44s-5.6,12.69-21.3,25.66c-17.84,14.73-39.93,18.51-39.93,18.51s2,2.43,6.49,1.69c8.14-.69,21.63-4.67,37.57-17.36a96.59,96.59,0,0,0,27.16-35.17A95.43,95.43,0,0,0,584,284.52c-14.83,8.58-20.55,18.23-20.56,18.23s2.55-11.93-1-28.76A92.84,92.84,0,0,0,540,230.49a114.77,114.77,0,0,0-7.32,44.39c.95,22.17,8.5,35.56,11.73,40.1,2.43,3,4.31,2.25,4.31,2.25S537.8,299.13,537.22,276c-.52-20.36,5-32.92,5-32.92s11.45,11.61,15.83,34.12c3.29,16.91,1.11,28.63-2.67,36.6-9.39,17-16.57,29.68-24.28,42.05a118.67,118.67,0,0,0-.2-31.17c-4-27.8-24.52-45.81-24.52-45.81a94.71,94.71,0,0,0-2.75,10c-3.39-11.27-6.86-23.15-9.83-34.13-9-33.28-16.83-76.19-16.83-76.19s-11.35-.38-16.83-6.86c-34.42,2.62-53-7.71-80.56-8.23-21.34-.4-31.91,11.87-31.92,11.85s-16.46-11.73-41.64-9.73c-52.25,4.14-63,.81-72.2-1.68-3,3.74-5.22,6.77-10.44,10.26-4.15,2.78-12.13,5.88-12.13,5.88s1.9,11.32,2.7,16.46l-1.15-1.39c-2.57-4-16.05-3.53-19.09,2.63l-1,1.81-2.11-10.67c3.44-2.29,8.07-6.71,1.7-8.23,3.74-4.45,4.79-9.83,5-15.1,1.35-4.59.08-11.25-2.34-13.43-2.62-7.88-7.78-11.94-10.75-11.56l-.76-2.72c-1.13-3.94-15.73-2.73-31.59,1.82s-28.88,11.9-27.75,15.84l.72,1.52c-4.89,2.23-5.92,9.11-4.88,16.32a13,13,0,0,0,4.52,12.82c3.34,5.56,8,10,14.1,10.52a2.84,2.84,0,0,0-.69,2.49c.48,1.67,3.29,2.54,7.51,2.65l4.19,11.11c-1.84.67-3.81,1-6.26,1.9-6,2.22-12.42,9.83-13,13.48-1.34,3.31,0,6.18,1.89,9.89.89,3.5-5.21,11-1.31,16.75,5.62,6.69,7.32,7.13,6,11.76-1,7.08,1.45,10.47,5.61,13.34,2.5,1.5,2.87,2.13,3.1,9,.2,3.75,4.39,7.3,10.9,11.16,9.36,5,14.28,5.19,23.67,5.94,1.36,4.07,9.15,28.05,14.07,43.12a226.51,226.51,0,0,0-39.77,26.6,114.53,114.53,0,0,0,4.21-22.52,120.6,120.6,0,0,0-5.25-47.07,103.3,103.3,0,0,0-25.41,45.38,82.74,82.74,0,0,0-1.15,35.08c-8.67-12-20-28.65-28.63-44.75l-1.4-2.61c-.72-5.36-.86-20,2.9-35.8,6-25.19,20.46-33.6,20.46-33.6s4.19,13.83,1,35a96.22,96.22,0,0,1-16.17,40.57s3.5.27,6.58-3.6c4.36-5.49,11.53-17.45,14.46-37.56a133,133,0,0,0-2-47.32s-22,16.14-28.42,43.49a118.89,118.89,0,0,0-2.91,31c-6.6-13-12.64-26.27-20.53-44-3.07-8.27-4.21-20.13.54-36.69,6.32-22,18.74-32.61,18.74-32.61s4.43,13,2.15,33.23c-2.6,23-15.07,40.06-15.07,40.06s1.81.93,4.49-1.87c3.62-4.24,12.3-16.92,15.18-38.92A114.71,114.71,0,0,0,95,206a92.91,92.91,0,0,0-26.1,41.38c-5,16.46-3.48,28.57-3.49,28.56s-4.87-10.1-18.89-20A95.36,95.36,0,0,0,0,239.28a96.51,96.51,0,0,0,24,37.4c14.78,14,27.86,19.17,35.91,20.57,4.37,1.12,6.61-1.12,6.61-1.12s-21.67-5.69-38.15-21.91c-14.52-14.29-19-27.43-19-27.43s16.45.17,35.07,13.55A71.21,71.21,0,0,1,68.63,290.9c6.85,16.15,12.17,29.94,18.12,42.8-2.5-2.85-10.54-10.82-26.1-16.37C33.3,307.58,10,311.84,10,311.84a122.26,122.26,0,0,0,34.23,31.93c16.2,10,29.93,13.71,41.4,13.46,5.13-.42,7.21-3.31,7.21-3.31s-19.43.57-44.26-13.52c-18.64-10.57-26.16-23.31-26.16-23.31s16.8-3.45,39.18,5.59c17.2,6.95,27.62,18,30.37,21.61.73,1.57,1.16,2.45.84,1.59,8.11,15.32,18.41,30.84,26.86,42.75-4.73-3.25-13.37-7.69-26.6-9.87-30.16-5-54.6,4.05-54.6,4.05A158.61,158.61,0,0,0,81,408.76c17.11,6.91,29.24,7.13,36.65,6.15A225.28,225.28,0,0,0,73.1,549.76C73.1,674.73,174.41,776,299.38,776S525.67,674.73,525.67,549.76a224.2,224.2,0,0,0-30.84-114.14c6.84,2.07,20.52,4.48,41.44-1.91a158.82,158.82,0,0,0,44.67-22.14s-23.57-11.11-54.05-8.8c-13.36,1-22.36,4.69-27.35,7.52C509,399.16,520.61,384.59,530,370c-.4.83.11,0,1-1.51,3.06-3.37,14.4-13.46,32.15-18.89,23.07-7.05,39.52-2.15,39.52-2.15s-8.61,12-28.1,20.95c-26,11.87-45.28,9.6-45.28,9.6s1.83,3.06,6.9,3.94c11.41,1.24,25.41-1.27,42.42-9.81a122.1,122.1,0,0,0,36.88-28.83S592.6,337.07,564.5,344.39Zm-265.12-3.84c115.55,0,209.21,93.67,209.21,209.21S414.93,759,299.38,759,90.18,665.3,90.18,549.76,183.84,340.55,299.38,340.55Zm-26.64-13.74c2.16.13,4.3-.12,13.48-.12,14.59,0,35.4-4.87,54.12-5.24a70.16,70.16,0,0,1,27.31,5.24c-6.57,5.09-8.85,10.75-11,14.41a215.93,215.93,0,0,0-57.21-7.65c-7.07,0-14.07.32-20.93,1Q275.49,330.46,272.74,326.81Zm89.4,15.86a57.63,57.63,0,0,1,3.14-5c7,2.19,14.07,4.76,20.76,7.6.77,1.86,1.44,3.75,2,5.65,1.92-.81,3.93-1.53,5.76-2.16A222.44,222.44,0,0,1,470,407.62a33.83,33.83,0,0,0,2.61,4.65,7.14,7.14,0,0,0,5.28,3.17s-9.84-19.14-9.58-42.34a96.63,96.63,0,0,1,5.06-30.57c.89-2.52,1.45-3.86,1.45-3.86a37.36,37.36,0,0,1,2.78,3.61c3.68,5.32,10,16.42,12.61,32.85a83.57,83.57,0,0,1-3.85,39.52c-4.22,4.74-8.36,9.44-9.78,11.07A216.66,216.66,0,0,0,362.14,342.67Zm104.25,54.39a226.79,226.79,0,0,0-66.7-50.17c23.95-6.41,41.09.69,66.3,1.13a115.4,115.4,0,0,0-2.35,23.74A109.37,109.37,0,0,0,466.39,397.06Zm-74.25-53.79c-.31-.14-.61-.24-.92-.39-3.17-8.17-6.47-11.82-10.36-16.32,7-3.74,18.89-6.61,34.29-6.24,10.13.24,29.32,8.27,57,7.09a114.93,114.93,0,0,0-4.82,15.22C438.79,342.25,418.27,333.27,392.14,343.27Zm-8.78-3.71q-7.55-3-15.34-5.49a32.09,32.09,0,0,1,6.11-5.76C377.67,330.62,380.78,334.71,383.36,339.56Zm91.27-12.29a130.91,130.91,0,0,0,21.95-3.21,33.34,33.34,0,0,1,3.86,3.23,101.6,101.6,0,0,0,1.37,11.11,125.46,125.46,0,0,1-17.65,3.35A92.41,92.41,0,0,0,474.63,327.27Zm-1.94-144.79s6.9,40.68,16.87,75.1c4.25,16.83,8.41,31.41,11.94,43.24a129.6,129.6,0,0,0-1.33,20.53,38,38,0,0,1-2.85-3C479.27,256,462.69,179.56,462.66,179.54,466.15,182.4,472.69,182.48,472.69,182.48Zm-166-11.26c24.22-1.83,42.48,11.17,42.47,11.18s8-14,29.93-13.46c34.16.77,42.39,11,78.3,8.48,0,0,17.46,83.29,35.44,142.17-38.93,7.22-58.64-3.89-79.68-4.62-14.61-.51-29.33,3.61-36.37,7.3,0,0-19.76-108-22.13-120.41-1.89-9.88-4.08-4.43-3.28.48.54,3.3,16.26,102.71,19,119.48A85.54,85.54,0,0,0,339.9,316c-17.42.2-37.47,4.68-55.11,5.49a68.4,68.4,0,0,1-16.7-.9c-1.47-2-2.8-3.9-3.92-5.61a143.76,143.76,0,0,1-11.36-20.65c-1.61-16.53-8.56-87-13.61-123.3C248.44,173.42,257.91,174.92,306.72,171.22Zm-80.23,7.19a65.4,65.4,0,0,0,7.17-5.79c5,36.06,10.11,86.05,11.88,104-4-7.16-8.9-11.32-12.13-17.44a28.84,28.84,0,0,0,1.09-3.21c1.18-4.36.75-9.76.22-14.64-1.47-13.67-2.32-23.17-7.72-29.05,0,0-2.29-2.75-5.17-6.25-2.38-11.15-4.31-22.6-4.31-22.6A67.76,67.76,0,0,0,226.49,178.41Zm-29.21,23.13c2.8-5.6,11.25-4.32,13.34-1.65,4.16,5.34,9.41,11.88,12.93,16,4.47,5.3,5.17,16.78,7.18,30.37,1.15,7.75-3,15.67-6.72,20.15-3,3.59,1,4.78,4.07,1.64a25.75,25.75,0,0,0,2.58-3.57,8.51,8.51,0,0,0,.68.95c10.67,13,12.27,18.81,14.48,25.38s8.11,17.55,15.23,28.61c3.08,4.77,7,9.67,11.57,15.66a214,214,0,0,0-47.89,11.58c-3-13.55-11.7-53.83-11.7-53.83,4.79-4.26,7-10,5.84-13.25-1.73-.83-2.43,1.42-5.52,5.79a18.19,18.19,0,0,1-1.48,1.82l-2.75-12.48c1.92-4,.3-10.35-3-12.46,2.71-1.37,3.24-4.15,3.37-7.62a9.78,9.78,0,0,0-3.56-8.16c2.69-2.39,2.78-5.46,2.91-7.46.13-4.8-2.41-8.21-4.06-9.21a7.54,7.54,0,0,0-1.19-.54c-1.48.42-1.56-.51,0,0a6.66,6.66,0,0,0,1.94-1s1.79-1.47,2-1.72c2.9-3.82.86-8.06-.62-6.1s-6.61,7.63-16,4.15c-3.13-1.16-6.66-2.52-3.64-6.46A80.41,80.41,0,0,0,197.28,201.54Zm-22.83-.06c-3.32-.23-10.78,2.9-19.93,8.68L150,196.06a101.7,101.7,0,0,1,16.4-6.15,105,105,0,0,1,17.87-3.63l4.37,19.07c-.09.12-.17.25-.26.38C185.8,204.52,178.4,201.78,174.45,201.48Zm19.62-42.94c.55,3.3,0,6.55-.88,6.73-2.44.48-3.84-2.32-4.39-5.62s.81-5.67,2-6S193.52,155.23,194.07,158.54Zm-9.79-14.2c2-.35,4.51,2.15,6.29,6.37a5.83,5.83,0,0,0-1.72,0c-3.44.53-4.79,4.57-3.8,9.62s3.78,8.81,7.22,8.28a6.67,6.67,0,0,0,1.44-.42c-.29,4.69-1.7,8.16-3.74,8.51-3.16.56-7-6.15-8.65-15.34S181.12,144.9,184.28,144.34Zm-2.91-3.28c-3.79,1.91-5.86,8.09-4.67,18.4s4.85,17.82,9,20.46a65.78,65.78,0,0,0-15.39,2.18c4.91-4.59,6.76-13.26,4-22.16-2.81-9.2-10.3-15.57-16.51-16.39C168.34,140.87,176.59,140,181.37,141.06Zm-28.51,7.24c6.39-1.75,13.82,4.29,16.6,13.49s-.16,18.06-6.55,19.81-13.82-4.3-16.6-13.5S146.47,150,152.86,148.3Zm-28.83,31a9.39,9.39,0,0,1-.68-5.37,2.64,2.64,0,0,1,1.07-1.68c1.55-1,3.81.77,5,3.89s1.4,6.35-.25,7.15C127.1,184.32,124.85,181.37,124,179.31Zm13.79,13c-2.42.79-6.09-1.37-9.24-5.9a4.36,4.36,0,0,0,1.9-.14c3.33-1,3.89-5.4,2.57-10.38-1.09-4.17-4.81-8.39-8.13-7.37a2.76,2.76,0,0,0-1.63,1.23c-.23-4.88.68-8.31,2.95-9.05,3.51-1.14,9.09,4.76,12.17,14.22S141.33,191.13,137.82,192.27Zm5.3.35c2.27-4.59,2.4-12.8-1.42-22.35s-9.17-13.67-13.44-14c3.4-3.1,9.08-6.35,18.57-9.53-7.59,5-9.51,31.62,12,38.71A73.15,73.15,0,0,0,143.12,192.62Zm31.94,104.53c1.46,1.71,3.77,3.61,3.58,3.59-11.87-1.47-15.56-2.46-22.68-7.84-5.55-3.31-3.78-6.5-4.12-12.57-.28-3.65-5.28-4.52-7.58-7.64-3.93-5,1.25-10-1.69-13.1-5.48-4.73-7.88-8.4-5.61-14.46,2.62-9.48-1.87-7.73-.29-15.69,1.83-6,6.11-8.26,8.69-9.54,3.38-1.32,6.89-2.1,9.13-3.42,5.11-3,15-9.44,18.26-9.7s8.55,1.44,13.9,3.63c0,0-4.85,6.47-5.58,10.83A7.42,7.42,0,0,0,178,221c-4.23.91-11.16,6.83-20,10-6,2-3.38,6-1.74,6.23a14.55,14.55,0,0,0,4.42-1.44c3.07-1.26,15.87-9.26,20.2-8.32s19.31,2.46,22.64,7c1,1.17,2.28,6.59-1.05,8.89-1.41.44-3.54-.06-5.4-.29-5.66-.7-11.79-3.26-15-1.89-12.72,5.19-18.27,9.2-22.44,9.89-5.91,1-2,7.22,1.27,6.66,11.37-4.77,17.21-9.54,23.54-10.1,8.06.89,14.86.13,19.32,2.68,1.94,1.73,2,6.63.51,8.09-1.24,1.4-4.57,1.24-9.11,1.68-2.77.27-7.05.19-9.37,1.31a205.65,205.65,0,0,1-19.8,10.12c-5.32.22-1.74,8.81,4.32,5.09,4.55-2.8,13.73-7.87,16.24-8.6,3-.87,11.93-3.32,16.38-2.46a5.26,5.26,0,0,1,2.83,6.31c-1.18,4-6,5.78-14.11,8.62A65.4,65.4,0,0,1,176.35,290C172,292.09,174.2,295.49,175.06,297.15Zm6-4.26c6.36-3.42,6.2-3.17,11.76-7.36,2.12-.72,9.83-4,12.28-6.21,0,0,13.15,60.53,15.13,69-6.43,2.54-12.72,5.34-18.84,8.46C197.51,344.39,181.1,292.89,181.1,292.89Zm-49.16,61.53c5.84-23.41,18.51-35,18.51-35s5.11,13.5,3.48,34.88c-1.75,23.12-13.23,41.33-13.23,41.33a7.16,7.16,0,0,0,5.55-2.7,40,40,0,0,0,5.27-8.9,221.22,221.22,0,0,1,44.12-30.7l1.81,5.58a217.91,217.91,0,0,0-57.71,44.84c-1.52-1.93-4.3-5.48-7.41-9.64A83.79,83.79,0,0,1,131.94,354.42Zm393.65,53.15c25.26-2.65,41.95,5.19,41.95,5.19s-12.23,10.32-33.93,16.52c-22.92,6.54-38.34,2.19-47.63-.38a8.35,8.35,0,0,0,2.16,3.84,222.48,222.48,0,0,1,33.33,117c0,122.65-99.43,222.08-222.09,222.08S77.3,672.41,77.3,549.76a221.16,221.16,0,0,1,46.61-136.15l1.83-.51a7.21,7.21,0,0,0,4.74-4.74c-9.48,1.75-24.19,4.74-46.45-3.78C63,396.51,51.67,385.17,51.67,385.17S69,378.8,93.92,383.65A77.74,77.74,0,0,1,127,398.83c3.88,5.22,6.79,8.89,7.93,10.34A215.49,215.49,0,0,0,83.05,549.76c0,119.48,96.86,216.33,216.33,216.33s216.34-96.85,216.34-216.33a215.11,215.11,0,0,0-35.2-118.34c1-1,5.72-5.94,10.76-11.62A77.68,77.68,0,0,1,525.59,407.57Zm.86-44.34-1.61,2.48c-10,15.29-22.74,30.87-32.42,42.08a82.52,82.52,0,0,0,1.91-35,104.5,104.5,0,0,0-7.79-25.95,150.52,150.52,0,0,0,16.36-3.18c2.44,10.14,6,17,8.58,20.9,2.73,4.13,6.24,4.15,6.24,4.15a96.24,96.24,0,0,1-12.58-41.81,120.51,120.51,0,0,1,3.43-37.45s14.36,12.28,18.12,37.9C529.06,343.39,527.64,358,526.45,363.23Z"/><path class="cls-1" d="M447.12,549.76A147.74,147.74,0,1,0,299.38,697.49,147.73,147.73,0,0,0,447.12,549.76Zm-28.31,28.11-14.07-8.59c-3.31-6.61,7.35-20.79,7.35-20.79l15,9.72C421.29,566.07,418.4,573,418.81,577.87Zm-10.5-69.51,4.31,2.91s-5.46,5.74-6.58,5.18C405.11,516,408.31,508.36,408.31,508.36Zm-91.38-6.69-9.36,3,25.16-91.37a138.39,138.39,0,0,1,24.52,8.26L329.2,486.05l17.6-5.56-38.75,89.19L319.73,566l-28.4,64.76c-1.5.5-3,1-4.75,1.36L300.29,581l-5.64,1.79Zm33.4,81.83,7.49,4.08-1.36,1.57a55.78,55.78,0,0,1-4.11,12.18l17.77,9.57-1.4,2.54-17.64-9.61s-4.74,7.55-7.25,9.82l-.59,3.05-8.07-3.59C341.33,607.14,349,592.35,350.33,583.5Zm-18.45,27.11c-.51-4,7.65-23.08,14.78-28.44C347.59,583.74,335.94,609,331.88,610.61Zm31.81-49.15-8.51,20.11-1.16-.63,4.48-22.49Zm-3.81-6.06s8.56-10.11,11.39-12L365,558.39Zm19.87,34.72c-1,2.81-8,17.29-8,17.29l-14.48-7.77Zm-13.13,26.75c-.87,2.14-5.13,9-5.13,9L354.42,610Zm-30.62.86.61.31-14.69,24.17L317.34,640l.33-1.4Zm-16.1,27.91-6.38,10.58,2.93-12.33Zm-19-28.55a6.13,6.13,0,0,1,1.77,4.11c0,2.9-2.63,5.58-7,7.76ZM283,632.87c-.71.13-1.47.25-2.21.37l2.92-31.71c2.08.39,5.47.85,7.29,1.37Zm-5.55-221.5-4.1,40.07,8-2.62-5.92,59.74,14.75-4.87-12.87,130c-1.26.14-2.55.23-3.85.32l-1.42-114.17-5.74,1.82-.5-54.61-7,2.24-.64-53.38A140,140,0,0,1,277.48,411.37Zm-95,215.12v-9.63a13.5,13.5,0,0,0,7.23,3.06,2.19,2.19,0,0,0,2.06-2.07,2.05,2.05,0,0,0-2-2.06,13.79,13.79,0,0,1-7.31-3.07V602.41a13.5,13.5,0,0,0,7.23,3.06,2.19,2.19,0,0,0,2.06-2.07,2.05,2.05,0,0,0-2-2.06,13.91,13.91,0,0,1-7.31-3.09V588a13.5,13.5,0,0,0,7.23,3.06,2.19,2.19,0,0,0,2.06-2.07,2.06,2.06,0,0,0-2-2.07,13.41,13.41,0,0,1-7.31-3V573.51a13.5,13.5,0,0,0,7.23,3.06,2.2,2.2,0,0,0,2.06-2.07,2.06,2.06,0,0,0-2-2.07,13.67,13.67,0,0,1-7.31-3V559.06a13.5,13.5,0,0,0,7.23,3.06,2.2,2.2,0,0,0,2.06-2.08,2,2,0,0,0-2-2,13.64,13.64,0,0,1-7.31-3.06V544.6a13.56,13.56,0,0,0,7.23,3.07,2.2,2.2,0,0,0,2.06-2.08,2.06,2.06,0,0,0-2-2.06,13.24,13.24,0,0,1-7.31-3V530.16a13.5,13.5,0,0,0,7.23,3.06,2.21,2.21,0,0,0,2.06-2.07,2.06,2.06,0,0,0-2-2.07A13.64,13.64,0,0,1,182.5,526V515.7a13.5,13.5,0,0,0,7.23,3.06,2.19,2.19,0,0,0,2.06-2.07,2.05,2.05,0,0,0-2-2.06,13.64,13.64,0,0,1-7.31-3.06V501.25a13.56,13.56,0,0,0,7.23,3.07,2.21,2.21,0,0,0,2.06-2.08,2.05,2.05,0,0,0-2-2.06,13.64,13.64,0,0,1-7.31-3.06V485.25s.2-1,1-.33a7,7,0,0,0,2.34,1.59,23.6,23.6,0,0,0,8.49,1.63,24.41,24.41,0,0,0,11.35-2.09,1.51,1.51,0,0,0,.86-1.66,1.62,1.62,0,0,0-1-1.1c-.84-.31-1.68.33-3.1.82a19.71,19.71,0,0,1-8.46,1.13c-3.42-.3-8.34-1-8.37-2.69,0-1.17,2.57-2.24,4.93-3a39.62,39.62,0,0,1,10.78-1.22c5.39,0,9.85.39,9.89,3,0,1.52-1.47,1.68-1.91,3a11.66,11.66,0,0,0-.31,1.21l0,101.17-19.1,49.81S185,630.43,182.5,626.49Zm10.38,13.94,28.81-74.88V517.91a2.78,2.78,0,0,0-.91-2.47,2.63,2.63,0,0,1,.55-4.12,5.34,5.34,0,0,0,.31,1.5c2.2,4.19,8.76,5.54,14.68,5.44a29.34,29.34,0,0,0,12.49-2.78s1.56-.63,1-2a1.43,1.43,0,0,0-1.8-.9,26,26,0,0,1-9.77,2.7c-5,.23-12.37-.87-13.68-3.43-2.34-4.56,7.73-5.44,12.35-5.49,7-.06,15.67,2.22,15.29,6.48a9,9,0,0,1-1.33,3.12V565.6l12.82,31c-23-.09-53.93,9.77-51.89,26.82l11.45,44.07C213.33,661.66,201.06,650.4,192.88,640.43Zm34.85,29.77-9-36.48c9.33,6.83,21.94,10.28,33.71,11.82a1.7,1.7,0,0,0,1.8-1.79,1.78,1.78,0,0,0-1.71-1.83c-21.33-2.52-36.88-10.69-36.88-20.39,0-11.72,22.62-21.67,54.31-21.17l.32,33.87c-1.21,0-2.49.06-3.73.06-19.9,0-36-5.86-36-13.09,0-5.82,10.33-10.73,24.78-12.44a1.86,1.86,0,0,0,1.77-1.85,1.79,1.79,0,0,0-1.76-1.86c-16.45,2.1-28.67,8.6-28.67,16.23,0,9.33,17.91,16.89,40,16.89s40-7.56,40-16.89c0-2.76-1.57-5.36-4.34-7.66l2.57-6c8.56,4,12.26,8.64,12.26,14,0,11-19.73,19.94-45.26,21a1.82,1.82,0,1,0,0,3.63c18.92-.95,35.58-6.48,42.65-12.73l-13.3,56.9C278.05,690.7,250.57,684.72,227.73,670.2Zm109.85,15.25c1.37-4.6,10.14-18.19,11.56-13.54L360,677.12A133.4,133.4,0,0,1,337.58,685.45Zm40.51-19.76-16.71-8.2c1.45-10.43,11.22-23.93,15.1-24.49l16.16,8.81C386.66,644,379,657.16,378.09,665.69Zm18.11-26.52-19-10.33c-10.79,2.43-19.11,20.07-20.11,30.94l18.25,8.88c-3.71,2.54-10.73,6.24-10.73,6.24L352,669c-6.63-7.32-15.81,8.39-19.22,17.67-10.54,2.83-27.18,3.78-27.18,3.78l5.81-25L337.05,623,314.9,675.67s11.16,1,22.87-11.48l9.69-48.74a47.38,47.38,0,0,0,3.26-4.12L361.13,634c11.64-18.26,22-40.89,26.18-51.4l-28.19,12.07s.47-2,.7-3.45l35.54-40.33c.41-7.48.17-14.55-6.72-19.86L358.8,580.45l19.35-45.88c-4.82,1.79-16.25,13.62-22,20.69l-4.87,24.26-2.9-1.55c-6.62-2.71-25.79,32.63-18.74,36.71l3.74,1.84L319,632.79c1.86-7.79,4.28-13.06-.79-19.74l1.08-2.5c2.74-2.16,8.91-13.69,8.47-17.45l4.58-8.33c4.12-2.46,8.75-12.36,9.83-16.71l4.91-7.81c2.53.07,8.77-8.89,10.5-15l5.49-6.94c2.54,2.61,9.83-9.54,10.8-12.59l5.42-5.13c1.37,6.72,9.89-7.08,10.11-8.53l5.15-2.75c-2.16,7.33.51,8.17,8.82-2.55l2.3.56c-7.38,17.37,4,12,7.74,7.19l13.94,9.54.88,3.07-14.88-10.08c-12.77,20.48-4.48,22.75.12,20.31l16,10.59-.79,6.62-17.54-11.25c-5.06,5.58-15.64,25.16-9,29.1L421.26,584l-3.76,10.34-18.76-11c-9.42,7-19.16,23.94-15.51,33.87l19.17,10.45Zm-53.76-18.92-8.12,41.89s-8.39,8-13.33,8.87Zm19.3-37.14,27.67-45.83c1.81,2.67,2.37,6.71,2.11,12Zm66.33-52.2c-3.36,6.05-4,9.14-4,9.14l-10.51-7c-7.11,5.65-1.58-7.7.87-11.44ZM386.5,614.57c-.48-14.79,12.69-26.26,12.69-26.26l16.17,9.45c-5.34,4.12-13.5,15.6-12.53,25.62Z"/><path class="cls-1" d="M54.52,331.68c-.56,1.52.88,3.25,3.09,4.51C65,340.39,78,348.42,91.26,348.88,86.92,344.64,55.09,330.16,54.52,331.68Z"/><path class="cls-1" d="M35.65,267.56c-.85,1.28.11,3.2,1.89,4.84,5.9,5.46,16.26,15.67,28.44,18.93C62.87,286.48,36.49,266.27,35.65,267.56Z"/><path class="cls-1" d="M112,302c-1.52-.55-10.89,33.15-10.44,39.19,8.18-10.45,10.41-25.6,11.92-33.93C113.92,304.77,113.52,302.56,112,302Z"/><path class="cls-1" d="M85.51,249.91c-1.47-.47-9.24,31.84-8.61,37.56,7.41-10.19,9-24.65,10.19-32.61C87.43,252.47,87,250.38,85.51,249.91Z"/><path class="cls-1" d="M128.28,607.44q8.79-2.12,12.78-8.5,4.37-7,1.79-17.77l-4.26-17.76-1.48.36a9.1,9.1,0,0,1,.07,3.4,3.34,3.34,0,0,1-2.73,2.37l-28.65,6.88a3.38,3.38,0,0,1-3.61-.94,8.92,8.92,0,0,1-1.38-3l-1.48.35,4.41,18.35q2.39,10,9.94,14.29A19.28,19.28,0,0,0,128.28,607.44Zm-22.79-17.69a3.11,3.11,0,0,1,.2-2.69,5,5,0,0,1,2.42-1.27l28.59-6.86a4.56,4.56,0,0,1,2.52-.13c.76.3,1.31,1.21,1.68,2.72q1.64,6.87-4.78,11.47A29.17,29.17,0,0,1,126,597.32q-10.36,2.48-14.81,0A11.33,11.33,0,0,1,105.49,589.75Z"/><path class="cls-1" d="M129.78,646.06a17.7,17.7,0,0,1-6.4-7.15c-1-1.77-1.41-3.06-1.33-3.86s.71-1.47,1.82-2.08l12.72-6.9q2.43,4.48,1.52,7.21c-.59,1.82-2.27,3.72-5.06,5.72l.73,1.34,17.74-9.63-.72-1.34q-4.94,1.59-7.48.91c-1.69-.46-3.32-2.19-4.91-5.2l12.15-6.6a2.71,2.71,0,0,1,2.32-.43c.58.26,1.31,1.19,2.18,2.8q3.44,6.33,2.86,9.73t-5.09,7.18l.69,1.29,10.59-5.75L147.69,603l-1.34.73a9.13,9.13,0,0,1,1.1,3.48c0,1.3-.74,2.36-2.28,3.2l-25.41,13.79a3.64,3.64,0,0,1-3.87.21,8.45,8.45,0,0,1-2.35-2.86l-1.33.72L128.87,653l12.07-3.81-.79-1.46Q133.46,648.18,129.78,646.06Z"/><path class="cls-1" d="M191.19,712c-.16-1,.45-2.34,1.82-4.07l16.43-20.66q2.16-2.71,3.57-2.71a7.83,7.83,0,0,1,4,1.69l.94-1.19-11.78-9.37L179.76,690l-.39-.31,8-29L175.6,651.4l-.94,1.19a9.33,9.33,0,0,1,2.61,3.38c.29.88-.07,1.95-1.09,3.23l-17.65,22.2a5.44,5.44,0,0,1-3,2.15c-1,.18-2.43-.42-4.22-1.83l-.94,1.18,10.93,8.7,1-1.18q-2.88-2.48-2.89-4.24a6.93,6.93,0,0,1,1.83-4.09L178,660.93l.21.16-9.86,36.14,1.26,1L203,679.87l.34.26L185.12,703c-1.13,1.42-2.21,2.06-3.25,1.92a8.48,8.48,0,0,1-3.67-1.8l-.95,1.19,15.53,12.35.94-1.19Q191.41,713.48,191.19,712Z"/><path class="cls-1" d="M248.88,703.8a20.68,20.68,0,0,0-11.45-11.35q-8.61-3.74-16.51-.49t-11.56,11.8a20.42,20.42,0,0,0-.63,15.56q3,8.28,11.76,12.09a20.7,20.7,0,0,0,16.11.64q8-3,11.78-11.67T248.88,703.8Zm-10.23,12.34a39.1,39.1,0,0,1-5.72,9.79q-5.49,6.32-11.63,3.63t-5.31-11A48,48,0,0,1,224.9,698q5.52-6.4,11.73-3.71,4.45,2,5.13,7.51T238.65,716.14Z"/><path class="cls-1" d="M282.5,706.67c2.17.46,3.57,1.18,4.19,2.14s.8,2.42.53,4.42l-2.31,17.62-.29,0-17.08-27.64L255,701.52l-.2,1.51a3.09,3.09,0,0,1,1.64.92,46.61,46.61,0,0,1,2.89,4l-3.69,28a5.46,5.46,0,0,1-1.41,3.34c-.74.69-2.21.92-4.42.69l-.19,1.5L263,743.3l.2-1.5q-3.66-.63-4.6-2.61a7.36,7.36,0,0,1-.24-4L261.44,712l.4,0,21.89,35.11,1.65.21L290,712.48c.24-1.81.7-2.94,1.39-3.38a8.76,8.76,0,0,1,3.89-.75l.2-1.5-12.75-1.69Z"/><path class="cls-1" d="M299.75,706.84l1.1,12,1.72-.16q-.07-6.4,4-9.15a15.41,15.41,0,0,1,6.55-2l3,31.3c.21,2.17,0,3.66-.74,4.47s-2.19,1.3-4.51,1.52l.14,1.51,21.2-2.05-.15-1.51c-2.42.24-4.05,0-4.89-.61s-1.34-2.06-1.55-4.24l-3-31.31a15,15,0,0,1,6.81.72q4.2,1.89,5.66,8.23l1.71-.17-1.21-12Z"/><path class="cls-1" d="M382.73,717.14c-.4,4.46-1.5,7.78-3.27,10a17.62,17.62,0,0,1-8.07,5.21c-1.9.67-3.24.91-4,.71a3,3,0,0,1-1.78-2.13l-4.83-13.64q4.82-1.71,7.36-.37c1.71.85,3.33,2.82,4.87,5.88l1.43-.51-6.74-19-1.43.51c.52,3.41.43,5.91-.28,7.53s-2.68,2.94-5.9,4l-4.62-13a2.72,2.72,0,0,1-.06-2.36c.35-.54,1.38-1.12,3.11-1.72q6.8-2.41,10.06-1.31t6.29,6.16l1.38-.49-4-11.36-32.45,11.5.51,1.43a9,9,0,0,1,3.61-.54c1.28.18,2.22,1.1,2.8,2.75l9.65,27.25a3.64,3.64,0,0,1-.4,3.86,8.46,8.46,0,0,1-3.2,1.87l.51,1.43,32.91-11.66-1.86-12.52Z"/><path class="cls-1" d="M431.49,699.09a2.57,2.57,0,0,1-1.39-.2l-19.41-7.55a13.63,13.63,0,0,0,3.36-5.44,9.22,9.22,0,0,0-1.24-8.38q-3.65-5.49-11-3.65a30.83,30.83,0,0,0-8.77,4.3l-16,10.61.84,1.26c1.8-1,3.07-1.44,3.82-1.37,1.11.1,2.31,1.12,3.59,3l14.57,22c1.22,1.84,1.71,3.25,1.46,4.2s-1.2,2-2.83,3.24l.84,1.27L416.1,711.3l-.84-1.26q-2.68,1.63-4.16,1.32t-3.23-3l-6.45-9.76,1.31-.87,20.64,8.73,10.2-6.75-.79-1.19A5.1,5.1,0,0,1,431.49,699.09ZM406.44,691q-1.24,2.69-6.08,6L392,684.35a2.35,2.35,0,0,1-.48-2,5.55,5.55,0,0,1,2.29-2.25q3.68-2.43,7-.5a12.93,12.93,0,0,1,3.83,4C406.64,686.76,407.27,689.23,406.44,691Z"/><path class="cls-1" d="M462.4,662.45a2.52,2.52,0,0,1-1.4.2l-20.73-1.91a13.66,13.66,0,0,0,1.72-6.15,9.19,9.19,0,0,0-3.5-7.72q-5-4.27-11.6-.47a30.83,30.83,0,0,0-7.25,6.55l-12.48,14.61,1.15,1c1.46-1.44,2.56-2.23,3.29-2.37,1.1-.2,2.53.44,4.29,1.94L436,685.27c1.68,1.44,2.54,2.65,2.56,3.64s-.58,2.3-1.82,3.89l1.15,1L451,678.44l-1.15-1c-1.43,1.55-2.64,2.35-3.64,2.42s-2.33-.6-3.92-2l-8.9-7.6,1-1.19,22.24,2.7,7.94-9.3-1.08-.92A5.42,5.42,0,0,1,462.4,662.45Zm-26.31-.82c-.3,1.94-1.7,4.41-4.19,7.43l-11.56-9.88a2.35,2.35,0,0,1-1-1.82,5.43,5.43,0,0,1,1.58-2.79c1.91-2.23,4.08-3,6.53-2.4a13,13,0,0,1,4.8,2.83C435.11,657.45,436.4,659.66,436.09,661.63Z"/><path class="cls-1" d="M472.84,618.39q4.29,5.16,4.74,9.38a17.59,17.59,0,0,1-2,9.37c-.87,1.83-1.65,2.94-2.34,3.35a3,3,0,0,1-2.75-.25L457.41,634c1.46-3.07,3.11-4.89,4.93-5.47s4.35-.36,7.61.72l.65-1.37-18.22-8.69-.65,1.37q4.17,3.06,5.12,5.52t-1.31,7l-12.48-6c-1-.49-1.59-1-1.72-1.63s.2-1.76,1-3.41q3.1-6.5,6.19-8c2.07-1,5-1.08,8.81-.1l.63-1.32-10.88-5.19-14.82,31.07,1.37.66a9.27,9.27,0,0,1,2.18-2.94q1.56-1.17,3.93,0l26.09,12.44c1.55.74,2.36,1.74,2.44,3a8.46,8.46,0,0,1-.93,3.59l1.37.65,15-31.51-10.18-7.54Z"/><path class="cls-1" d="M461.11,568.61a4.65,4.65,0,0,1-1.26-2.14,11.61,11.61,0,0,1-.11-2.35l-1.48-.33-2.84,12.82,1.48.33a15.05,15.05,0,0,1,1.35-3.53,2,2,0,0,1,2.32-.77,8.58,8.58,0,0,1,2.86,1.68,23.63,23.63,0,0,1,2,1.76l8.86,8.54-.11.49-15.63,4.18c-.9.2-1.51.32-1.84.37a3.29,3.29,0,0,1-.91,0,1.18,1.18,0,0,1-1-1.12,19.34,19.34,0,0,1,.4-4l-1.48-.33-4.33,19.51,1.49.33a5.26,5.26,0,0,1,1-2,6.42,6.42,0,0,1,3.25-2l21.73-6.35,8.57,1.9c2.13.47,3.45,1.14,4,2s.58,2.38.15,4.55l1.48.33,4.5-20.25-1.49-.33c-.52,2.08-1.17,3.43-2,4.05s-2.33.67-4.55.19l-10.74-2.39Z"/><path class="cls-1" d="M122,492.41q-5.64-3.06-6.07-7.92a15.33,15.33,0,0,1,1.42-6.7l28.84,12.54c2,.87,3.18,1.81,3.55,2.82s.06,2.54-.87,4.68l1.39.6,8.5-19.52-1.4-.61q-1.44,3.34-2.9,4c-1,.41-2.45.18-4.47-.7l-28.84-12.53a14.93,14.93,0,0,1,3.93-5.61q3.69-2.76,9.93-1l.69-1.57-11.07-4.75-14.34,33,11,4.86Z"/><path class="cls-1" d="M147.54,429.16q3.33-1,8.69,1.43l.84-1.19-9.8-7-20,28,1.24.89a9,9,0,0,1,2.65-2.52c1.16-.58,2.45-.37,3.88.65l23.53,16.78q2.1,1.5,1.89,3.39a8.46,8.46,0,0,1-1.55,3.37l1.24.89,20.27-28.43-8.71-9.19-1,1.36q3.33,5.82,3,10.05a17.71,17.71,0,0,1-3.62,8.89c-1.17,1.64-2.13,2.61-2.88,2.88a3,3,0,0,1-2.67-.72l-11.79-8.4c2-2.78,3.92-4.28,5.81-4.53s4.35.4,7.37,2l.88-1.23-16.43-11.72-.89,1.23c2.39,2.49,3.75,4.59,4.1,6.32s-.51,3.95-2.52,6.69l-11.26-8c-.92-.65-1.39-1.28-1.4-1.89s.49-1.7,1.55-3.19Q144.23,430.14,147.54,429.16Z"/><path class="cls-1" d="M184.82,436.53a21.64,21.64,0,0,0,14.47-6.13,18.78,18.78,0,0,0,5.63-9.4,33.73,33.73,0,0,0,.72-8.33l-2.3.13a32.08,32.08,0,0,1-.75,7.13,15.38,15.38,0,0,1-4.59,7.68q-5.55,5.1-12.83,1.24a31.8,31.8,0,0,1-8.23-6.78q-5.9-6.44-7.53-11.94a8.78,8.78,0,0,1,2.79-9.59q3.92-3.59,10.28-2.86a32.8,32.8,0,0,1,8.1,2.31l1.12-1-9.44-10.3L181,389.79a4.11,4.11,0,0,1,.6,1.95,2.16,2.16,0,0,1-.75,1.86,30.61,30.61,0,0,1-4.06,1.87,21.89,21.89,0,0,0-6.52,4.07,20.41,20.41,0,0,0-6.93,14q-.59,8.73,6,15.91T184.82,436.53Z"/><path class="cls-1" d="M194.92,383.66c.54.13,2.08.69,4.63,1.71l12.62,25.32a5.46,5.46,0,0,1,.7,3.57c-.22,1-1.32,2-3.27,3l.67,1.36,12.12-6-.68-1.36q-3.37,1.51-5.27.41a7.3,7.3,0,0,1-2.41-3.13l-10.47-21,.37-.18,37.78,16.86,1.48-.75L227.49,372c-.81-1.64-1.06-2.83-.74-3.58a8.7,8.7,0,0,1,2.81-2.8l-.67-1.36L217.37,370l.68,1.35q3.09-1.25,4.67-.57a6.64,6.64,0,0,1,2.92,3.37l7.92,15.9-.26.13-29.61-13.37-11.33,5.65.68,1.36A3.38,3.38,0,0,1,194.92,383.66Z"/><path class="cls-1" d="M247.45,394.87c4.85,3.29,10.39,4.23,16.62,2.86a20.7,20.7,0,0,0,13.4-9q4.71-7.17,2.68-16.37t-9.35-13.7a20.64,20.64,0,0,0-15.93-2.45q-9.17,2-13.65,9.3T238.8,381.9A20.5,20.5,0,0,0,247.45,394.87Zm.55-26.75q.69-8.43,7.31-9.9,4.76-1.05,8.57,3.07t5.9,13.42A39,39,0,0,1,270.91,386q-.74,8.33-7.28,9.77T252.88,390A47.86,47.86,0,0,1,248,368.12Z"/><path class="cls-1" d="M319.66,379.22l-1.75,0c-1.82,4.58-4,7.65-6.42,9.23a16.31,16.31,0,0,1-9.06,2.28,8.62,8.62,0,0,1-4.05-.68,2.87,2.87,0,0,1-1-2.63l.25-28.21c0-2.37.43-3.86,1.23-4.46s2.45-.91,4.89-1v-1.52l-20.89-.18v1.51a9.16,9.16,0,0,1,3.58.74c1.12.61,1.68,1.79,1.66,3.54l-.25,28.91c0,1.75-.62,2.93-1.81,3.54a8.86,8.86,0,0,1-3.51.62v1.51l34.6.3Z"/><path class="cls-1" d="M338.58,398.73a20.71,20.71,0,0,0,16-1.88q7.46-4.25,9.81-13.37T362.3,367a20.67,20.67,0,0,0-13.09-9.41q-9.09-2.34-16.39,2.09t-9.57,13.47a20.52,20.52,0,0,0,1.82,15.48Q329.31,396.33,338.58,398.73Zm-4.94-23.2a39.25,39.25,0,0,1,4.06-10.46q4.46-7.2,11-5.51,4.71,1.23,6.24,6.62t-.83,14.64A38.75,38.75,0,0,1,350,391.38q-4.42,7.08-10.92,5.41t-7-10A38.8,38.8,0,0,1,333.64,375.53Z"/><path class="cls-1" d="M377.08,414.87a37.18,37.18,0,0,0,9.16,4A26.42,26.42,0,0,0,393,420l3.86-6.56c1.05-1.78,2-2.82,3-3.12s2.36,0,4.18,1l.77-1.31-17.65-10.39-.77,1.3a12.12,12.12,0,0,1,3.48,2.73c.67,1,.54,2.35-.37,3.91l-3.2,5.43a4.23,4.23,0,0,1-2.05,2c-1.3.48-3,.07-5.24-1.22q-6.07-3.57-5.25-9.87a34.23,34.23,0,0,1,4.65-12.73q4.62-7.83,9.45-10.82a8.88,8.88,0,0,1,9.81,0q4.57,2.7,5.74,9a33.1,33.1,0,0,1,.16,8.42l1.3.77,7.09-12-1.43-.84a5.35,5.35,0,0,1-1.86,1.27,2,2,0,0,1-1.68-.21,19.86,19.86,0,0,1-3.25-3.51,20.51,20.51,0,0,0-5.65-4.95,20,20,0,0,0-16.28-2.31,21.12,21.12,0,0,0-12.58,10,20.59,20.59,0,0,0-2.68,15.48Q368.51,409.83,377.08,414.87Z"/><path class="cls-1" d="M420.06,401.06,400.9,422.72c-1.17,1.32-2.42,1.82-3.73,1.48a9.11,9.11,0,0,1-3.14-1.95l-1,1.13,15.64,13.84,1-1.13a8.35,8.35,0,0,1-2.59-3.42c-.33-1,.07-2.19,1.17-3.44l19.16-21.65c1.18-1.34,2.42-1.85,3.69-1.53a10.64,10.64,0,0,1,3.31,2.07l1-1.13-15.64-13.84-1,1.13a9.47,9.47,0,0,1,2.35,3Q421.81,399.08,420.06,401.06Z"/><path class="cls-1" d="M415,437.21A21.69,21.69,0,0,0,420.35,452a18.73,18.73,0,0,0,9.09,6.12,34.56,34.56,0,0,0,8.29,1.15V457a31.84,31.84,0,0,1-7.08-1.11,15.45,15.45,0,0,1-7.44-5q-4.79-5.81-.56-12.88a31.7,31.7,0,0,1,7.2-7.86q6.72-5.55,12.31-6.9a8.78,8.78,0,0,1,9.44,3.29c2.25,2.73,3,6.21,2.31,10.42a32.29,32.29,0,0,1-2.73,8l1,1.17,10.78-8.88-1.06-1.28a4.19,4.19,0,0,1-2,.49,2.16,2.16,0,0,1-1.83-.84,30,30,0,0,1-1.65-4.16,21.71,21.71,0,0,0-3.73-6.72A20.41,20.41,0,0,0,439,417q-8.69-1-16.21,5.15T415,437.21Z"/><path class="cls-1" d="M449.62,455.43a20.47,20.47,0,0,0-10.68,11.33q-3.18,8.21.95,16.84a20.77,20.77,0,0,0,11.73,11q8.06,3,16.56-1.08t11.25-12.18a20.67,20.67,0,0,0-1.21-16.08q-4-8.47-12.13-11.21T449.62,455.43Zm26.79,10.75q2.1,4.4-1.06,9T463.61,484a38.64,38.64,0,0,1-10.75,3.63q-8.26,1.17-11.15-4.89t3.2-11.77a47.93,47.93,0,0,1,20.21-9.67Q473.49,460.08,476.41,466.18Z"/><path class="cls-1" d="M123,148.2c-6-11.1-12.61-20.74-9.5-39.45,2.82-17,14.61-22.83,20.28-53.65,4,.5,9.5,19,9.5,19s.73-26.2-12.61-33.44c0,0,1.74,13.73-3.65,27.2-5.71,14.26-18.38,26.9-21.31,40.12C105.72,108,102.18,138,123,148.2Z"/><path class="cls-1" d="M165.56,96c-3.29-10.23-1.65-25.7-1.65-25.7C156.6,80.49,152,84.56,140,90c-18.28,8.23-14.62,26.2-14.62,26.2s2-15.75,17.91-19.74A37.62,37.62,0,0,0,157,89.94c.91,10.73,2.92,12.22,7.13,19.46s1.64,22.24,1.64,22.24C174.15,118.41,168.85,106.19,165.56,96Z"/><path class="cls-1" d="M170.85,23.62c16.33,29.37,3.45,54,3.45,54,7.54,2.63,16.18-5.25,16.18-5.25,2.2,31-12.88,58.54-12.88,58.54,15.08-12.51,17.24-38.21,17.43-49,.32-17.19,2.75-24.84,2.75-24.84-7.77,10.51-14.84,9.79-14.84,9.79C190.79,37.26,172.42,16.24,166.45,0c3.77,33.44-10,49-14.76,55.65C170.38,44.18,170.85,23.62,170.85,23.62Z"/><path class="cls-1" d="M86.16,393.6c-.27,1.68,1.56,3.18,4.09,4,8.44,2.86,23.53,8.54,37.33,6.34C122.24,400.49,86.44,391.91,86.16,393.6Z"/><path class="cls-1" d="M145.44,358.78c.23-2.53-.37-4.71-1.93-5.12s-8,34-7,40C143.76,382.49,144.66,367.2,145.44,358.78Z"/><path class="cls-1" d="M277.11,235.76c11.17.54,18.46-2.73,18.46-2.73l-8.24-46.29s-7.09.62-15.9.6c-14.47,0-22.71-2-22.71-2l6.7,47A111.4,111.4,0,0,0,277.11,235.76Zm-5.51-44.18a91.9,91.9,0,0,0,12.91-.48l6.5,37.62s-5.72,2.66-14.8,2.22a81.79,81.79,0,0,1-17.66-3.06L253.18,190A149.32,149.32,0,0,0,271.6,191.58Z"/><path class="cls-1" d="M329.56,296.07c-14.09.75-34.16,6.61-45,6.56a193,193,0,0,1-20.79-1.57c-3.05-.4-4.12,2.87-.13,3.62a164.26,164.26,0,0,0,23.95,1.81c10-.06,27-5.46,42.14-6.3s24,2.67,26.52,3.6c2.65,1,3-2.86-.09-3.85C353.64,299.14,345.27,295.24,329.56,296.07Z"/><path class="cls-1" d="M260.78,198.94c1.51,0,5.39.55,5.39.55a2.1,2.1,0,0,1,2.56,2.23L271.44,220c.12.81.37,2.19-.13,3s-2.73,3.81-2.73,3.81,2.83,0,6.55.18a22.85,22.85,0,0,0,6.28-.62,38,38,0,0,1-4-3.37,6.35,6.35,0,0,1-.62-2.7c-.18-1.22-2.7-20.37-2.7-20.37a28.38,28.38,0,0,1,6,.1c2,.43,1.66,1.93,1.66,1.93l1.34.28-1.24-6.41s-6.48,0-11.52.1a92.42,92.42,0,0,1-13.8-1.15l1,7.77h1.05S259.27,198.94,260.78,198.94Z"/><path class="cls-1" d="M327.63,277.38c-13.73.75-34,6.15-44.62,5.93-9.69-.19-18.62-1.56-21.65-2.56-2.85-.93-3.92,2.48-.12,3.62,2.91.87,13.3,2.61,24.72,2.81,10.69.18,27.14-4.71,41.92-5.56s22.47,2.24,25,2.86,2.6-3.35.12-3.93S342.94,276.55,327.63,277.38Z"/><path class="cls-1" d="M322.24,240.67c-13.27.52-33,5.57-43.19,5.18-9.36-.36-18.22-2.17-21.14-3.22-2.73-1-3.82,2.42-.17,3.62a108.07,108.07,0,0,0,24.09,3.51c10.32.36,26.29-4.25,40.57-4.84a64.32,64.32,0,0,1,24.79,3.45c2.42.66,2.57-3.31.19-3.94A63.12,63.12,0,0,0,322.24,240.67Z"/><path class="cls-1" d="M297.08,205.29a2.07,2.07,0,0,0-2,2.4c.27,2.15,2.7,1.77,2.7,1.77,7.28-.69,12.51-1.51,19.84-1.31,14.29.41,21.43,4.13,23.79,5s2.79-3.13.46-3.92-9.32-4.82-24.12-5.28C311,203.7,305.14,204.55,297.08,205.29Z"/><path class="cls-1" d="M294.47,190.55c7.13-.6,12-1.41,19.66-1.08,13.7.59,20.47,4.41,22.72,5.27s2.74-3.1.52-3.91-8.83-5-23-5.6c-7-.32-12.68.49-20.62,1.18A1.94,1.94,0,0,0,292,189C292.28,190.69,294.47,190.55,294.47,190.55Z"/><path class="cls-1" d="M461.54,302.37c-22.35-1.63-35.43-6.74-50.5-7.36a69.93,69.93,0,0,0-27.68,4.36c-3.15,1-1.82,4.87.87,3.87A70.45,70.45,0,0,1,410.66,299c15.34.41,25.09,5.34,48.26,6.85a79.62,79.62,0,0,0,18.21-.86c4-.76,2.94-4-.13-3.62A69.5,69.5,0,0,1,461.54,302.37Z"/><path class="cls-1" d="M457.23,284.59c-22.12-1.63-35.06-6.74-50-7.36a68.65,68.65,0,0,0-27.4,4.36c-3.12,1-1.8,4.87.86,3.87a69.41,69.41,0,0,1,26.17-4.24c15.17.41,24.83,5.34,47.76,6.86a77.7,77.7,0,0,0,18-.88c4-.74,2.91-4-.12-3.61A67.58,67.58,0,0,1,457.23,284.59Z"/><path class="cls-1" d="M448.6,249c-21.65-2-34.23-7.34-48.85-8.21a66,66,0,0,0-26.92,3.89c-3.07.95-1.85,4.85.78,3.88a66.78,66.78,0,0,1,25.71-3.79c14.86.68,24.24,5.77,46.68,7.68a75.09,75.09,0,0,0,17.67-.57c3.93-.67,2.93-4-.05-3.61A64.86,64.86,0,0,1,448.6,249Z"/><path class="cls-1" d="M439.62,211.48c-21.11-2-33.38-7.34-47.62-8.2a62.71,62.71,0,0,0-26.25,3.9c-3,.94-1.8,4.84.76,3.88a63.42,63.42,0,0,1,25.07-3.8c14.49.67,23.62,5.76,45.51,7.67a72,72,0,0,0,17.23-.57c3.82-.68,2.85-4-.06-3.62A62.07,62.07,0,0,1,439.62,211.48Z"/><path class="cls-1" d="M363.32,192.36A61.77,61.77,0,0,1,388,188.55c14.27.66,23.27,5.74,44.82,7.64a69.2,69.2,0,0,0,17-.58c3.77-.68,2.81-4-.05-3.62a59.6,59.6,0,0,1-14.42.75c-20.78-2-32.87-7.32-46.9-8.18a61.11,61.11,0,0,0-25.85,3.91C359.63,189.42,360.8,193.32,363.32,192.36Z"/><path class="cls-1" d="M324.58,259.12c-13.67.52-33.95,5.57-44.49,5.17a77.51,77.51,0,0,1-20.3-3.2c-2.81-1-3.94,2.42-.19,3.61A96.84,96.84,0,0,0,283,268.21c10.63.36,27.08-4.25,41.79-4.85s22.32,2.62,24.81,3.28,2.64-3.31.18-3.93S339.82,258.54,324.58,259.12Z"/><path class="cls-1" d="M300.41,224.09s-2.42.26-2.11,2.46,2.85,1.69,2.85,1.69c6.85-.92,10.5-1.93,18.25-1.72,15,.4,22.51,4.13,25,4.95s2.93-3.12.48-3.91-9.78-4.82-25.32-5.28C312.44,222.07,308.11,223.1,300.41,224.09Z"/><path class="cls-1" d="M444.3,230.22c-21.42-2-33.88-7.33-48.34-8.2a64.44,64.44,0,0,0-26.64,3.9c-3,.94-1.83,4.84.77,3.88a65.24,65.24,0,0,1,25.44-3.8c14.71.67,24,5.76,46.2,7.67a73.61,73.61,0,0,0,17.49-.57c3.88-.68,2.89-4-.06-3.62A62.84,62.84,0,0,1,444.3,230.22Z"/><path class="cls-1" d="M452.79,266.81c-21.8-1.63-34.54-6.75-49.24-7.36a66.62,66.62,0,0,0-27,4.36c-3.07,1-1.77,4.88.85,3.87a67.69,67.69,0,0,1,25.78-4.24c14.95.41,24.46,5.34,47.06,6.86a76.71,76.71,0,0,0,17.75-.87c3.93-.75,2.87-4-.13-3.62A66,66,0,0,1,452.79,266.81Z"/><path class="cls-1" d="M478.8,373.36c-1.6.28-2.38,2.39-2.37,4.94,0,8.46-.39,23.77,5.84,35.48C483.77,407.91,480.4,373.09,478.8,373.36Z"/><path class="cls-1" d="M528,421.83c2.6-.64,4.56-2,4.43-3.68s-36.54,3.72-42.16,6.74C503.83,428.28,519.36,424,528,421.83Z"/><path class="cls-1" d="M160.49,174.07c3.56-1.61,4.64-7.13,2.3-12.3-2.73-6-7.16-6.89-10.4-5.42-2.59,1.18-4.35,5.88-2.49,11.23C152.07,173.83,156.93,175.68,160.49,174.07Zm-6.3-14.68c2.15-1,4.95.92,6.27,4.26s.64,6.84-1.51,7.83-4.95-.92-6.27-4.26S152,160.37,154.19,159.39Z"/></g></g></svg>