<svg xmlns="http://www.w3.org/2000/svg" viewBox="0 0 854.19 792.91"><defs></defs><g id="Layer_2" data-name="Layer 2"><g id="Layer_1-2" data-name="Layer 1"><path class="cls-1" d="M851,336.28a454.3,454.3,0,0,1-50.06,68.91,526.74,526.74,0,0,1-64.71,62.4,427.53,427.53,0,0,1-74.41,48.54,327.59,327.59,0,0,1-80,29.07q46.44-67.31,90-135.41T764.19,276l-56-.13L678,322.12h-2.39a53.82,53.82,0,0,0-14.14-37q-14.19-15.84-45.85-15.92c-14.61,0-30.63,3.34-47.93,10a273.16,273.16,0,0,0-51.63,27.1,368,368,0,0,0-49.18,39.28,310.91,310.91,0,0,0-41.54,47.82c-2.1,3-4.1,6-6.09,9.05a74.06,74.06,0,0,0-18-29.42q-21.84-22.4-65.68-22.48T258,371.53q-33.75,21-59,55.88l5.68,4.07a198.54,198.54,0,0,1,21.58-25.92,186,186,0,0,1,27.25-23.1,141.29,141.29,0,0,1,30.87-16.16,94.44,94.44,0,0,1,33.31-6q32.47.06,47.05,18.77t14.52,54.41q-.08,36.57-18,63.73a155,155,0,0,1-45.16,45,208.79,208.79,0,0,1-59.73,26.67q-32.52,8.85-61.72,8.78-31.65-.06-58-11.49a146.44,146.44,0,0,1-45-29.73,133.49,133.49,0,0,1-29.14-42.69A123.77,123.77,0,0,1,52,444.17q.09-45.5,15.15-75.1a160.87,160.87,0,0,1,39.5-50.23,246.7,246.7,0,0,1,55.71-35.22q31.24-14.52,63-29.07,28.46-12.93,41.51-34t13.1-52q0-23.52,6.61-51.55a174.77,174.77,0,0,1,21.24-51.91,124.26,124.26,0,0,1,39-39.7q24.44-15.77,60.12-15.7,39,.09,60.86,17.18t21.82,54.43q0,13.83-6.2,31.67a120.84,120.84,0,0,1-18.33,34.05,110.58,110.58,0,0,1-30.48,27.56q-18.32,11.31-42.67,11.28-25.17-.06-35.73-4.15l-.8,8.92c2.68,1.11,7.57,2.19,14.59,3.3a143.07,143.07,0,0,0,21.91,1.67,156.59,156.59,0,0,0,46.3-7.2,141,141,0,0,0,43.09-21.85A117.44,117.44,0,0,0,513,131q12.23-21.09,12.29-47.89,0-21.94-10.06-37.78a84.68,84.68,0,0,0-25.95-26.06A111.29,111.29,0,0,0,454,4.54,173.94,173.94,0,0,0,415.09,0Q368-.09,332.64,14.42T274.11,53.68a160.91,160.91,0,0,0-34.66,56.78,202.17,202.17,0,0,0-11.52,67.77c0,15.68-.58,28.28-1.68,37.73s-3.15,17.2-6.14,23.15a36.06,36.06,0,0,1-12.62,14.16,186,186,0,0,1-22,11.72q-34.93,15.4-68.7,32.32a297.2,297.2,0,0,0-59.35,38.87A179,179,0,0,0,16,387.23Q.11,416.43,0,457q-.06,29.23,12.47,53.61T48.92,553q23.88,17.88,58.38,27.71t79.14,9.91q40.59.1,82.47-14.41a317.64,317.64,0,0,0,76-38,257.5,257.5,0,0,0,40.73-34.36,84.3,84.3,0,0,0,2.91,15.79,59.58,59.58,0,0,0,10.55,20.74,53.91,53.91,0,0,0,18.61,15.07c7.56,3.78,16.51,5.71,26.78,5.74a100.14,100.14,0,0,0,40.63-8.44,188.84,188.84,0,0,0,37.39-21.84,308.92,308.92,0,0,0,33.76-29.17c10.6-10.53,20.2-20.91,28.91-31.2l1.61,1.63q-16.31,22.69-37.47,54.74t-46.85,66.47q-25.63,34.45-54.52,68.49A546.6,546.6,0,0,1,387.31,723a307.3,307.3,0,0,1-66.26,43.7q-34.55,16.51-70.28,16.46a160.7,160.7,0,0,1-39-4.55,89,89,0,0,1-31.22-14.27,68.4,68.4,0,0,1-21.06-25.22c-5.09-10.29-7.66-22.75-7.62-37.34q.06-33.33,15.56-53.17t47.1-19.78h6.51v-6.51a83.75,83.75,0,0,0-11-2.44,88.69,88.69,0,0,0-13.4-.86q-38.16-.07-63.38,23t-25.27,58a72.94,72.94,0,0,0,10.07,38.18q10.09,17.07,28.32,29.28t43.43,18.78a216.22,216.22,0,0,0,54.36,6.59q49.54.12,92.61-16.84a357.44,357.44,0,0,0,78.45-42.44,437.53,437.53,0,0,0,63.43-55.46,744.77,744.77,0,0,0,48.46-56.76q20.31-26.74,32.56-45.4c8.17-12.44,13.57-19.45,16.28-21.08q13.83-1.6,45.51-12.47t71.52-35.17Q732.93,483,775.64,442.5t78.55-101.33ZM575.42,467.63a409.34,409.34,0,0,1-40.29,38.9q-19.89,16.62-38.22,25.89c-12.16,6.22-22.08,9.3-29.66,9.29a30.06,30.06,0,0,1-23.91-11q-9.31-11-9.26-28.83.07-34.16,18-73.05a332.44,332.44,0,0,1,45.23-72.18q27.29-33.21,58.61-55.48T614,278.94q18.69,0,26.37,10.63A40.36,40.36,0,0,1,648,313.93a153.44,153.44,0,0,1-10.28,54,281.62,281.62,0,0,1-26.11,52.31,336,336,0,0,1-36.21,47.43"/></g></g></svg>