<svg xmlns="http://www.w3.org/2000/svg" viewBox="0 0 380 377.04"><defs><style>.cls-1{   stroke: #fff;
    stroke-width: 9px;
    fill: none;
}</style></defs><g id="Layer_2" data-name="Layer 2"><g id="Layer_1-2" data-name="Layer 1"><path class="cls-1" d="M336.28,277.78c-29.59-2.18-57.54-8.8-84.25-21-2.71-1.24-6.43-.82-9.59-.43-31.44,3.92-62.91,7.68-93.52,16.31a228.15,228.15,0,0,0-23.24,7.53c-2.73,1.09-5.12,4.1-6.73,6.8C105.47,309.54,91.72,332,73.42,351c-7,7.23-15,13.53-23.09,19.51-7.8,5.76-17.06,7.32-26.68,6.1C5.54,374.35-5,356.17,2.35,339.44s19-30.12,33.39-40.58C50,288.52,65.56,279.93,80.5,270.49c2.07-1.31,4.49-2.74,5.64-4.75,18.66-32.54,37.68-64.92,49.48-100.83,3.88-11.81,8.1-23.51,11.76-35.38a19.09,19.09,0,0,0,.13-9.47c-3.3-14.35-8-28.47-10.22-43C134.14,56.29,138.47,36,146,16.54c5.41-14,19.15-19.39,34.26-15.12,10.32,2.92,16.64,9.44,19.87,19.4a81.51,81.51,0,0,1,3,38.08c-2.78,17.6-7.25,34.93-10.6,52.45a22.81,22.81,0,0,0,.62,11.7c10.07,26.86,24,51.64,44.4,71.93A107.09,107.09,0,0,0,266,214.89c5.58,2.7,13.69.89,20.55.07,21.64-2.57,43.11-2.2,64.3,3.1a66.3,66.3,0,0,1,15.07,6.06c10.61,5.69,16,15.62,13.42,26.73-2.07,8.9-6.36,19-17,22C353.89,275.22,345,276.18,336.28,277.78ZM122.06,260.29C157,249,190.81,236.46,226.94,231.79c-25-22.56-41.38-50.12-56.9-79.23-13.35,36.48-28.88,71.1-47.72,104.18C122.07,257.18,122.22,257.84,122.06,260.29ZM74.44,293.22C50.89,306.29,34,325.63,22,349.45,50.2,340.88,62.21,317,74.44,293.22ZM291.57,234.1c4.13,9.85,56.9,22.74,69.09,16.58-4.89-3.53-8.69-7.54-13.35-9.41C329.65,234.17,311,234.06,291.57,234.1ZM172.4,12.85l-2.12-.49c-1.36,1.72-3.22,3.25-4,5.21-5.55,13.92-4.87,48.23,1.72,64.07C173.15,57.82,178.85,35.64,172.4,12.85Z"/></g></g></svg>