<svg xmlns="http://www.w3.org/2000/svg" viewBox="0 0 585.91 366.11"><defs><style>.cls-1{   stroke: #fff;
    stroke-width: 9px;
    fill: none;
}</style></defs><g id="Layer_2" data-name="Layer 2"><g id="Layer_1-2" data-name="Layer 1"><path class="cls-1" d="M0,360.21l123.1-188L11.55,0h85L168.8,115.73,239.57,0h84.27l-112,174.94L334.9,360.21H247.18L167.33,235.63,87.22,360.21Z"/><path class="cls-1" d="M585.91,360.21H521.78V321.88q-16,22.35-37.71,33.29t-43.86,10.94q-45,0-77-36.25t-32.07-101.1q0-66.34,31.21-100.87t78.87-34.52q43.72,0,75.68,36.36V0h69V360.21ZM401.63,224.09q0,41.78,11.55,60.44,16.71,27,46.68,27,23.83,0,40.54-20.27t16.71-60.57q0-45-16.21-64.74T459.37,146.2q-24.57,0-41.15,19.53T401.63,224.09Z"/></g></g></svg>