<svg xmlns="http://www.w3.org/2000/svg" viewBox="0 0 581.79 356.17"><defs><style>.cls-1{   stroke: #fff;
    stroke-width: 9px;
    fill: none;
}</style></defs><g id="Layer_2" data-name="Layer 2"><g id="Layer_1-2" data-name="Layer 1"><path class="cls-1" d="M351.63,350.44h-77l-30.6-79.61H104L75.06,350.44H0L136.49,0h74.82ZM221.35,211.79l-48.28-130-47.33,130Z"/><path class="cls-1" d="M511.22,269.64l66.93,11.24q-12.92,36.81-40.76,56.05t-69.68,19.24q-66.21,0-98-43.26-25.09-34.67-25.1-87.49,0-63.1,33-98.85T461,90.84q56.66,0,89.4,37.41t31.31,114.62H413.45q.71,29.88,16.25,46.49T468.43,306q15.76,0,26.53-8.6T511.22,269.64ZM515,201.75q-.72-29.16-15.06-44.34t-34.9-15.18q-22,0-36.33,16t-14.11,43.5Z"/></g></g></svg>