<svg xmlns="http://www.w3.org/2000/svg" viewBox="0 0 325.32 377.04"><defs><style>.cls-1{   stroke: #fff;
    stroke-width: 9px;
    fill: none;
}</style></defs><g id="Layer_2" data-name="Layer 2"><g id="Layer_1-2" data-name="Layer 1"><path class="cls-1" d="M262.88,196.61c0-30,16.4-56.64,40.58-71.45-15-20.55-34.81-33.61-57.26-35.16a68.21,68.21,0,0,0-34.39,6.87,105.62,105.62,0,0,1-91.18,0A68.21,68.21,0,0,0,86.26,90C33.44,93.65-4.95,160.83.52,240.07S63,379.91,106.06,376.93a51.25,51.25,0,0,0,17.29-4.49,105.62,105.62,0,0,1,85.75,0,51.3,51.3,0,0,0,17.3,4.49c36,2.49,81.67-39.41,98.92-99.45C289.72,267.88,262.88,234.91,262.88,196.61Z"/><path class="cls-1" d="M176.58,25.88A88.28,88.28,0,0,0,150.7,85.79a88.28,88.28,0,0,0,59.91-25.88A88.28,88.28,0,0,0,236.49,0,88.28,88.28,0,0,0,176.58,25.88Z"/></g></g></svg>