<svg xmlns="http://www.w3.org/2000/svg" viewBox="0 0 527.13 377.04"><defs><style>.cls-1{   stroke: #fff;
    stroke-width: 9px;
    fill: none;
}</style></defs><g id="Layer_2" data-name="Layer 2"><g id="Layer_1-2" data-name="Layer 1"><path class="cls-1" d="M0,0H150.71q44.74,0,66.74,3.73A98.2,98.2,0,0,1,256.8,19.29,96.77,96.77,0,0,1,285.74,50.8q11.56,19.67,11.57,44.1a89.37,89.37,0,0,1-53,81.79q34.46,10,53,34.2t18.52,56.84a112.14,112.14,0,0,1-12,50q-12,24.3-32.66,38.83t-51,17.88q-19,2.05-91.82,2.57H0ZM76.13,62.76v87.18H126q44.49,0,55.3-1.28,19.55-2.32,30.73-13.51t11.19-29.44q0-17.49-9.65-28.42T184.92,64q-11.32-1.29-65.07-1.28Zm0,149.94V313.51H146.6q41.15,0,52.21-2.31,17-3.09,27.64-15.05t10.68-32q0-17-8.23-28.8t-23.79-17.24q-15.57-5.4-67.52-5.4H76.13Z"/><path class="cls-1" d="M422.46,377H350.19V103.91h67.13v38.83q17.22-27.51,31-36.26a57,57,0,0,1,31.24-8.75q24.69,0,47.58,13.63l-22.37,63q-18.27-11.83-33.95-11.83-15.18,0-25.72,8.35T428.5,201.12q-6,21.87-6,91.56V377Z"/></g></g></svg>