<svg xmlns="http://www.w3.org/2000/svg" viewBox="0 0 366.11 366.11"><defs><style>.cls-1{   stroke: #fff;
    stroke-width: 9px;
    fill: none;
}</style></defs><g id="Layer_2" data-name="Layer 2"><g id="Layer_1-2" data-name="Layer 1"><path class="cls-1" d="M193.78,161.6a10.75,10.75,0,0,1-5.93,9.6L145,192.65a10.73,10.73,0,0,1-9.6-19.19l37-18.49V108H150.88v32.18a10.73,10.73,0,1,1-21.46,0V108H108V215.23h32.18a10.73,10.73,0,1,1,0,21.45H108v21.45h64.36V204.5a10.72,10.72,0,0,1,5.93-9.59l42.9-21.45a10.73,10.73,0,0,1,9.59,19.19l-37,18.48v47h21.45V226a10.73,10.73,0,1,1,21.45,0v32.17h21.45V150.88H226a10.73,10.73,0,0,1,0-21.46h32.17V108H193.78Z"/><path class="cls-1" d="M355.38,108a10.73,10.73,0,1,0,0-21.45H322.49V54.34a10.72,10.72,0,0,0-10.73-10.72H279.58V10.73a10.73,10.73,0,1,0-21.45,0V43.62H236.68V10.73a10.73,10.73,0,1,0-21.45,0V43.62H193.78V10.73a10.73,10.73,0,1,0-21.45,0V43.62H150.88V10.73a10.73,10.73,0,1,0-21.46,0V43.62H108V10.73a10.73,10.73,0,1,0-21.45,0V43.62H54.34A10.72,10.72,0,0,0,43.62,54.34V86.52H10.73a10.73,10.73,0,1,0,0,21.45H43.62v21.45H10.73a10.73,10.73,0,1,0,0,21.46H43.62v21.45H10.73a10.73,10.73,0,1,0,0,21.45H43.62v21.45H10.73a10.73,10.73,0,1,0,0,21.45H43.62v21.45H10.73a10.73,10.73,0,1,0,0,21.45H43.62v32.18a10.72,10.72,0,0,0,10.72,10.73H86.52v32.89a10.73,10.73,0,1,0,21.45,0V322.49h21.45v32.89a10.73,10.73,0,1,0,21.46,0V322.49h21.45v32.89a10.73,10.73,0,1,0,21.45,0V322.49h21.45v32.89a10.73,10.73,0,1,0,21.45,0V322.49h21.45v32.89a10.73,10.73,0,1,0,21.45,0V322.49h32.18a10.72,10.72,0,0,0,10.73-10.73V279.58h32.89a10.73,10.73,0,1,0,0-21.45H322.49V236.68h32.89a10.73,10.73,0,1,0,0-21.45H322.49V193.78h32.89a10.73,10.73,0,1,0,0-21.45H322.49V150.88h32.89a10.73,10.73,0,1,0,0-21.46H322.49V108Zm-75.8,160.89a10.71,10.71,0,0,1-10.72,10.72H97.25a10.72,10.72,0,0,1-10.73-10.72V97.25A10.72,10.72,0,0,1,97.25,86.52H268.86a10.72,10.72,0,0,1,10.72,10.73Z"/></g></g></svg>