<svg xmlns="http://www.w3.org/2000/svg" viewBox="0 0 511.02 449.04"><defs><style>.cls-1{color:#FFFfff;}</style></defs><g id="Layer_2" data-name="Layer 2"><g id="Layer_1-2" data-name="Layer 1"><path d="M511,408.07c-2.23,2.79-4,6.15-6.78,8.24-5.33,4-11.13,3.05-16.91.19q-46.45-23-93-45.73c-1.45-.72-2.94-1.34-5.07-2.3,0,11.52.56,22.46-.2,33.32-.51,7.31-1.62,15.08-4.67,21.63-8.07,17.35-22.78,25.36-41.68,25.52-23.45.2-46.9.05-70.35.05H47.81c-19.5,0-34.65-7.88-43.07-25.78A50.58,50.58,0,0,1,.22,402.55C-.13,343.67.05,284.79,0,225.91,0,208.8,8.37,189.56,32.86,181,7.49,155.29-3.84,124.7,1.37,88.85,5.26,62.06,18.58,40.44,39.22,23c38.9-32.9,115.63-35.43,155.62,27.26C216,18.22,245.5.82,283.84,0c25.92-.54,48.74,8.53,68.71,25.09,41.68,34.57,54,107.74,5.13,155,6.36,4.51,13.5,8.5,19.28,13.93,8.91,8.37,12.23,19.54,12.29,31.64.05,11.24,0,22.49,0,34.33,2.13-1,3.63-1.58,5.08-2.3l90.78-44.59c12.86-6.32,18.46-4.74,25.9,7.29Zm-316.38,11H340.85c13,0,18.46-5.42,18.47-18.46V227.92c0-13-5.43-18.46-18.47-18.46q-146.21,0-292.42,0c-13,0-18.46,5.42-18.47,18.46V400.58c0,13,5.43,18.46,18.47,18.46Zm-15-314.28a74.84,74.84,0,1,0-75.07,74.73A75.08,75.08,0,0,0,179.65,104.77ZM284.43,29.82a74.84,74.84,0,1,0,74.87,74.93A75.09,75.09,0,0,0,284.43,29.82ZM480.93,249.1a10.85,10.85,0,0,0-1.9.4q-43.57,21.4-87.1,42.95a6,6,0,0,0-2.55,4.51c-.22,11,.12,22-.25,32.91-.13,4.06,1.43,5.75,4.8,7.39,27.47,13.35,54.85,26.88,82.27,40.35,1.44.71,2.93,1.3,4.73,2.1Zm-286.3-89.8L179,179.17h31.33Z"/><path d="M194.79,359.16c-19.62,0-39.25.14-58.87,0-23.53-.21-42.5-16.31-45.33-38.16-3.59-27.7,15.65-51,43.79-51.44,40.23-.6,80.5-.79,120.72.05,35.37.74,55.37,37.34,37.61,67.8C284,352.25,270.16,359,253.15,359.12,233.7,359.29,214.24,359.16,194.79,359.16Zm-16.16-59.71v29.38h32V299.45Zm-28.94,14.93a14.94,14.94,0,1,0-15.06,14.8A15.07,15.07,0,0,0,149.69,314.38Zm119.77-.26a14.94,14.94,0,1,0-14.81,15.06A15.08,15.08,0,0,0,269.46,314.12Z"/><path d="M104.87,149.54c-24.41,0-44.75-20.2-44.93-44.7S80.49,59.59,105,59.78s44.75,20.56,44.68,45A45.28,45.28,0,0,1,104.87,149.54Zm14.88-45A14.94,14.94,0,1,0,105,119.59,15.07,15.07,0,0,0,119.75,104.49Z"/><path d="M329.33,105.37c-.71,24.77-21.25,44.74-45.45,44.16-24.92-.6-45.19-21.58-44.26-45.83.95-24.91,21.53-44.69,45.68-43.9C310.14,60.63,330,81.2,329.33,105.37Zm-45,14.22a14.93,14.93,0,1,0-14.79-15.08A15.07,15.07,0,0,0,284.32,119.59Z"/></g></g></svg>