<svg xmlns="http://www.w3.org/2000/svg" viewBox="0 0 502.72 377.04"><defs><style>.cls-1{fill:#fff;}</style></defs><g id="Layer_2" data-name="Layer 2"><g id="Layer_1-2" data-name="Layer 1"><path class="cls-1" d="M314.2,0A187.83,187.83,0,0,0,172.56,64.41c-5.15-.54-10.18-1.57-15.46-1.57a157.1,157.1,0,0,0,0,314.2H314.2c104.13,0,188.52-84.4,188.52-188.52A188.5,188.5,0,0,0,314.2,0ZM157.1,345.62a125.68,125.68,0,0,1,0-251.36,120.22,120.22,0,0,1,41.16,7.23c7.26,2,15.87,5.9,24.64,11.37.28.15.56.31.81.47l98.85,61.87a15.73,15.73,0,0,1-16.69,26.67l-98.12-61.42c-.31-.2-.62-.36-.91-.54a70.06,70.06,0,0,0-18.13-8.52C123.08,108,62.84,157.57,62.84,219.94A94.38,94.38,0,0,0,157.1,314.2a97,97,0,0,0,15.68-1.41,177.11,177.11,0,0,0,27,25.22A125.66,125.66,0,0,1,157.1,345.62Zm157.1,0a155.38,155.38,0,0,1-93.6-31.08A145.12,145.12,0,0,1,193.49,289a8.86,8.86,0,0,1-.82-.91L144.94,229.9A15.73,15.73,0,1,1,169.27,210L216.08,267c.4.41.75.83,1.1,1.26a114.21,114.21,0,0,0,22.11,21A124.39,124.39,0,0,0,314.2,314.2a125.68,125.68,0,0,0,0-251.36,124.34,124.34,0,0,0-73.74,23.94l-.1-.06c-.5-.32-1-.63-1.5-.91A132.58,132.58,0,0,0,209.1,72,155,155,0,0,1,314.2,31.42c86.63,0,157.1,70.47,157.1,157.1S400.83,345.62,314.2,345.62Z"/></g></g></svg>