<svg xmlns="http://www.w3.org/2000/svg" viewBox="0 0 392.26 392.25"><defs><style>.cls-1{   stroke: #fff;
    stroke-width: 9px;
    fill: none;
}</style></defs><g id="Cssid" data-name="CssIcon"><g id="Layer_1-2" data-name="Layer 1"><path class="Css" d="M198.42,392.25h-4.59c-9.56-2.05-19.09-4.2-28.66-6.13q-64.8-13-129.64-25.91c-2.4-.47-3.17-1.42-3.29-3.69-.23-4.45-.67-8.9-1.07-13.35q-2.91-32-5.85-64-2.46-27-4.89-54.1-2.89-31.63-5.8-63.25c-1.91-21-3.75-41.92-5.65-62.88Q5.66,62.36,2.29,25.78C1.66,19,.77,12.17,0,5.36V0H392.26c-.12,1.8-.17,3.07-.29,4.34-1.68,18.16-3.41,36.32-5.06,54.48-2.16,23.89-4.22,47.78-6.4,71.66-2.42,26.68-5,53.35-7.39,80-2.17,23.88-4.23,47.77-6.39,71.66-2.22,24.64-4.53,49.28-6.68,73.94-.23,2.57-1,3.65-3.67,4.18q-66.54,13.17-133,26.58C215,388.55,206.73,390.45,198.42,392.25ZM310.2,179.74h-153c15.81-8.79,31.71-16.82,47.62-24.85q54.79-27.63,109.59-55.23c1.86-.94,3.4-1.73,3.57-4.34.54-8,1.44-16,2.12-24,.16-1.84,0-3.7,0-5.64H71.71c1,10.89,1.92,21.5,2.91,32.48H243.5a8.91,8.91,0,0,1-3.17,2.34Q211.67,115,183,129.44q-48.13,24.28-96.3,48.48c-2.7,1.35-3.63,2.81-3.37,5.83.68,7.75,1,15.53,1.45,23.3.11,1.73.25,3.45.39,5.42H274c0,2.3.16,4.32,0,6.31-1.66,18.17-3.54,36.31-4.93,54.5-.28,3.73-1.51,4.9-4.91,5.55-18.88,3.63-37.71,7.59-56.61,11.16-5.16,1-10.71,2.12-15.74,1.23-21.19-3.74-42.25-8.28-63.39-12.34-3.46-.67-5.56-1.57-5.19-5.66.23-2.49-.39-5.07-.63-7.61-.63-6.7-1.27-13.4-1.92-20.27H88c1.82,20,3.62,39.71,5.41,59.41,1,.33,1.75.63,2.49.78q48.72,9.71,97.45,19.36a13.89,13.89,0,0,0,5.22,0q41.43-8.15,82.84-16.44c5.81-1.16,11.61-2.39,17.41-3.59C302.63,263.12,306.37,221.84,310.2,179.74Z"/></g></g></svg>