<svg xmlns="http://www.w3.org/2000/svg" viewBox="0 0 582.52 377.04"><defs><style>.cls-1{   stroke: #fff;
    stroke-width: 9px;
    fill: none;
}</style></defs><g id="Layer_2" data-name="Layer 2"><g id="Layer_1-2" data-name="Layer 1"><path class="cls-1" d="M0,0H139.14q47.07,0,71.76,7.2a126.22,126.22,0,0,1,56.84,34.72q23.65,24.94,36,61.08t12.35,89.12q0,46.55-11.58,80.24Q290.37,313.52,264.14,339q-19.81,19.29-53.5,30.09-25.2,8-67.38,8H0ZM76.13,63.79V313.51H133q31.89,0,46-3.59,18.52-4.64,30.74-15.69t19.93-36.4q7.71-25.32,7.71-69t-7.71-67.12q-7.72-23.4-21.61-36.52T172.83,67.39q-16-3.6-62.5-3.6Z"/><path class="cls-1" d="M582.52,377H510.25V237.64q0-44.23-4.63-57.22a40.16,40.16,0,0,0-15-20.19Q480.16,153,465.5,153a57.92,57.92,0,0,0-33.69,10.29,51.82,51.82,0,0,0-20.45,27.26q-5.53,17-5.53,62.75V377H333.56V103.9h67.13V144q35.74-46.29,90-46.29,23.91,0,43.72,8.62t30,22a79.54,79.54,0,0,1,14.14,30.34q4,17,4,48.61V377Z"/></g></g></svg>