<svg xmlns="http://www.w3.org/2000/svg" viewBox="0 0 610.63 317.37"><defs><style>.cls-1{   stroke: #fff;
    stroke-width: 9px;
    fill: none;
}</style></defs><g id="Layer_2" data-name="Layer 2"><g id="Layer_1-2" data-name="Layer 1"><path class="cls-1" d="M0,0H117.12q39.62,0,60.4,6.06a106.2,106.2,0,0,1,47.85,29.23q19.9,21,30.31,51.41t10.39,75q0,39.18-9.74,67.54-11.91,34.65-34,56.07-16.68,16.25-45,25.33-21.23,6.72-56.72,6.71H0ZM64.08,53.69V263.9h47.84q26.85,0,38.76-3,15.58-3.9,25.87-13.2T193.32,217q6.5-21.32,6.5-58.12t-6.5-56.5q-6.49-19.71-18.18-30.75T145.48,56.73q-13.42-3-52.61-3Z"/><path class="cls-1" d="M340.66,317.37,267.92,87.46H327l43.08,150.68L409.73,87.46h58.66l38.32,150.68L550.66,87.46h60L536.8,317.37H478.35L438.74,169.51l-39,147.86Z"/></g></g></svg>