<?xml version="1.0" encoding="utf-8"?>
<!-- Generator: Adobe Illustrator 26.0.3, SVG Export Plug-In . SVG Version: 6.00 Build 0)  -->
<svg version="1.1" id="Layer_1" xmlns="http://www.w3.org/2000/svg" xmlns:xlink="http://www.w3.org/1999/xlink" x="0px" y="0px"
	 viewBox="0 0 388.8 376.4" style="enable-background:new 0 0 388.8 376.4;" xml:space="preserve">
<style type="text/css">
	.st0{fill:#FFFFFF;}
</style>
<g id="Layer_2_00000167395765707047461240000011258692305536681403_">
	<g id="Layer_1-2">
		<path class="st0" d="M383.9,183.6c6.9-7.5,6.4-19.3-1.1-26.2c-0.1-0.1-0.3-0.2-0.4-0.3L208.6,5.1c-8.2-6.9-20.2-6.8-28.2,0.3
			L6.1,165.2c-7.5,6.8-8.1,18.5-1.3,26c0.1,0.2,0.3,0.3,0.4,0.5l4.4,4.6c7.2,7.6,19,8.4,26.2,2l13-11.7v170.8c0,10.5,8.5,19,19,19
			h68c10.5,0,19-8.5,19-19V237.9h86.7v119.5c-0.1,10.5,7.3,19,17.8,19h72c10.5,0,19-8.5,19-19V189l8,7.1c4.4,3.9,13.7,0.8,20.8-7
			L383.9,183.6z"/>
	</g>
</g>
</svg>
