<svg xmlns="http://www.w3.org/2000/svg" viewBox="0 0 392.26 391.68"><defs><style>.cls-1{   stroke: #fff;
    stroke-width: 9px;
    fill: none;
}</style></defs><g id="Layer_2" data-name="Layer 2"><g id="Layer_1-2" data-name="Layer 1"><path class="cls-1" d="M0,5.36V0H392.26q-.37,4-.74,8Q388,48,384.38,88.06c-2.68,29.47-5.49,58.94-8.16,88.41s-5.25,59-7.91,88.44c-2.75,30.5-5.58,61-8.28,91.48-.22,2.47-1,3.38-3.55,3.88-49.49,9.81-98.94,19.78-148.43,29.6-4.92,1-10.18,2.37-15,1.57-17.09-2.85-34-6.55-51-9.95Q88.88,370.84,35.64,360.25c-2.65-.52-3.28-1.64-3.41-4-.24-4.45-.7-8.9-1.1-13.35q-2.89-31.81-5.8-63.65-2.46-27.06-4.89-54.12-2.89-31.63-5.81-63.27Q11.78,130.42,9,99,5.68,62.37,2.29,25.79C1.66,19,.77,12.17,0,5.36ZM320.52,65.7H71.68c4.46,49,8.89,97.71,13.35,146.78H274.14c0,1.93.12,3.46,0,5-1.67,18.17-3.58,36.31-4.93,54.5-.35,4.64-1.67,6.29-6.35,7.14-18.42,3.33-36.72,7.33-55.11,10.87-4.94,1-10.23,2.35-15,1.51-20.45-3.58-40.76-7.93-61.12-12-7.66-1.53-7.68-1.5-8.66-9.1-.18-1.39-.21-2.8-.34-4.2q-1-10.42-2-20.79H88c1.72,18.8,3.48,37.33,5.06,55.87.25,2.9,1.27,4,4.18,4.55,26.26,5.12,52.46,10.5,78.7,15.66,10.39,2,20.74,5.69,31.5,1.83a21.12,21.12,0,0,1,3-.68q42.72-8.5,85.45-17c1.92-.38,3-1,3.2-3.35.51-7.5,1.37-15,2.05-22.48q2.53-27.63,5-55.26c1.33-14.71,2.65-29.43,4-44.57H114.77c-2.5-27.45-5-54.53-7.46-82.08H317.65C318.62,87,319.56,76.5,320.52,65.7Z"/></g></g></svg>