<svg xmlns="http://www.w3.org/2000/svg" viewBox="0 0 366.31 377.04"><defs><style>.cls-1{   stroke: #fff;
    stroke-width: 9px;
    fill: none;
}</style></defs><g id="Layer_2" data-name="Layer 2"><g id="Layer_1-2" data-name="Layer 1"><path class="cls-1" d="M0,371V0H74.9V371Z"/><path class="cls-1" d="M366.31,371H300.26V331.49c-22.19,31.06-54.08,45.55-84,45.55q-46.31,0-79.33-37.33t-33-104.12q0-68.33,32.14-103.88t81.22-35.55q45,0,77.94,37.45V0h71.11V371ZM176.53,230.78q0,43,11.89,62.25,17.21,27.84,48.08,27.83,24.54,0,41.75-20.87t17.21-62.38q0-46.31-16.7-66.68T236,150.56q-25.31,0-42.39,20.12T176.53,230.78Z"/></g></g></svg>