<svg xmlns="http://www.w3.org/2000/svg" viewBox="0 0 376.38 376.39"><defs></defs><g id="Layer_2" data-name="Layer 2"><g id="Layer_1-2" data-name="Layer 1"><path class="cls-1" d="M282.29,0H94.1C42.35,0,0,42.35,0,94.1V282.3C0,334,42.35,376.39,94.1,376.39H282.29c51.75,0,94.09-42.36,94.09-94.09V94.1C376.38,42.35,334,0,282.29,0ZM345,282.3A62.8,62.8,0,0,1,282.29,345H94.1A62.81,62.81,0,0,1,31.37,282.3V94.1A62.8,62.8,0,0,1,94.1,31.37H282.29A62.79,62.79,0,0,1,345,94.1V282.3Z"/><circle class="cls-1" cx="290.14" cy="86.25" r="23.52"/><path class="cls-1" d="M188.19,94.1a94.1,94.1,0,1,0,94.1,94.09A94.08,94.08,0,0,0,188.19,94.1Zm0,156.83a62.74,62.74,0,1,1,62.73-62.74A62.74,62.74,0,0,1,188.19,250.93Z"/></g></g></svg>