<svg xmlns="http://www.w3.org/2000/svg" viewBox="0 0 392.26 427.83"><defs></defs><g id="Layer_2" data-name="Layer 2"><g id="Layer_1-2" data-name="Layer 1"><path class="cls-1" d="M6.35,0H386.58c4.21,3.07,6.15,7,5.58,12.4Q388,51.82,384.1,91.28c-2.92,29.2-5.71,58.42-8.64,87.63q-4.8,48-9.73,95.91c-3.06,30.31-6.2,60.61-9,90.95-.48,5.2-3,7.73-7.35,9.37-46,17.26-92,34.61-138.15,51.64a19.28,19.28,0,0,1-11.76.26C146.7,409.7,94,392.05,41.27,374.51a7.76,7.76,0,0,1-5.63-7c-.43-3.45-.69-6.92-1-10.38q-4-39.64-8.05-79.3c-2.64-26.43-5.16-52.88-7.81-79.32-2.92-29.2-6-58.4-8.89-87.6-3.19-32-6.12-64-9.6-95.92C-.48,8.39.12,3.3,6.35,0ZM230.16,198V109h69c-1.7,8.48-3.52,16.61-4.91,24.82-.93,5.5,1.71,9.23,6.64,10.41,4.61,1.11,8.54-1.11,10.54-6a20.34,20.34,0,0,0,.86-2.78c2.51-10,5-19.93,7.49-29.91,2.1-8.49.41-11-8.24-12.57a21.18,21.18,0,0,0-3.74-.25q-43.65,0-87.31,0c-7,0-10.18,3.15-10.18,10.27q-.06,52,0,104c0,7.34,3.08,10.32,10.47,10.33q27.16,0,54.31,0h4.54c-.11,1.61-.1,2.59-.26,3.53-4.38,25.19-8.83,50.38-13.11,75.59-.43,2.53-1.66,3.49-3.81,4.19q-18,5.9-36,11.91c-3,1-6.11,1.92-9,3.19-4.19,1.81-6.21,5.45-5.49,9.27s4.58,6.75,8.91,6.74a16.27,16.27,0,0,0,4.91-.73q25.13-8.28,50.21-16.71c4.09-1.37,6.8-4.06,7.6-8.51,5.65-31.32,11.4-62.62,17-93.95,1.81-10.15-1.54-13.9-11.9-13.9C269.29,198,249.94,198,230.16,198Zm-52,112c-1-.17-1.71-.23-2.35-.4-13.55-3.66-27.06-7.43-40.64-10.9-2.64-.68-3.64-1.93-4-4.36-1.12-6.72-2.27-13.43-3.58-20.11-1.21-6.11-2.15-12.34-4.13-18.2-1.61-4.78-5.65-6-10.21-4.31-5.17,1.89-7.26,5.31-6.28,10.21,2.73,13.62,5.52,27.23,8.12,40.87,1.2,6.28,4.63,10,10.85,11.71,18.85,5.25,37.64,10.77,56.45,16.17,8.62,2.47,13.72-1.4,13.72-10.51q0-109.21,0-218.44c0-7.85-3-10.72-10.91-10.73H100.77c-6.82,0-13.65-.08-20.47,0-6.12.11-9.43,4-8.83,10.06.49,5,3.88,7.56,10.14,7.57h96.54Z"/></g></g></svg>