<svg xmlns="http://www.w3.org/2000/svg" viewBox="0 0 359.58 359.59"><g id="Layer_2" data-name="Layer 2"><g id="Layer_1-2" data-name="Layer 1"><path d="M179.79,0A179.8,179.8,0,1,0,359.58,179.8,179.79,179.79,0,0,0,179.79,0ZM132.93,265.62c0,3.15-.88,4.43-4.16,4.39q-18.18-.18-36.36,0c-2.89,0-3.81-1-3.8-3.89.11-20.71.06-41.41.06-62.12,0-20.23.08-40.47-.08-60.71,0-3.47,1.07-4.31,4.39-4.26q17.65.28,35.3,0c3.48-.06,4.69.8,4.68,4.47Q132.78,204.57,132.93,265.62Zm-.61-154.7c-4,7.1-12,11.1-21.81,11.1-13,0-22.2-7.44-24-19.17-2.15-13.83,7.14-23,16.59-25.41,11.76-3,23.73.74,29,9.73C136.55,94.94,136.79,103,132.32,110.92ZM288.14,269.56a36.46,36.46,0,0,1-3.81.39c-11.89,0-23.78-.08-35.66.08-3.4,0-4.45-1.14-4.44-4.5q.09-35.29-.17-70.6a27.26,27.26,0,0,0-4.95-16.26c-6.8-9.28-21.68-10.35-30.81-2.23-5.24,4.66-8.23,10.47-8.23,17.64q0,35.49-.07,71c0,4.86-.05,4.92-4.93,4.92-11.77,0-23.54,0-35.31,0-2.92,0-4.07-.77-4.06-4q.17-61.59,0-123.2c0-2.95.88-3.8,3.79-3.76q18.36.21,36.72,0c3,0,3.93,1,3.81,3.87-.17,4,0,8,0,12.48,3-3.24,5.58-6.38,8.57-9,8.2-7.28,18.06-10.17,28.88-10.31,14.27-.19,27,3.74,36.85,14.5a48.43,48.43,0,0,1,13.2,31.62c.84,28.32.67,56.67.9,85A21.29,21.29,0,0,1,288.14,269.56Z"/></g></g></svg>