<svg xmlns="http://www.w3.org/2000/svg" viewBox="0 0 520.68 366.11"><defs><style>.cls-1{   stroke: #fff;
    stroke-width: 9px;
    fill: none;
}</style></defs><g id="Layer_2" data-name="Layer 2"><g id="Layer_1-2" data-name="Layer 1"><path class="cls-1" d="M337.38,204.66l-43.61,43.76c-17.68,17.75-48.79,18.13-66.86,0L183.3,204.66,26.67,361.8a45.26,45.26,0,0,0,19.09,4.31H474.92A45.26,45.26,0,0,0,494,361.8Z"/><path class="cls-1" d="M474.92,0H45.76A45.4,45.4,0,0,0,26.67,4.3L194,172.23l0,0a0,0,0,0,1,0,0l54.42,54.6c5.78,5.78,17.88,5.78,23.67,0l54.4-54.59,0,0,0,0L494,4.3A45.4,45.4,0,0,0,474.92,0Z"/><path class="cls-1" d="M4.87,25.64A45.15,45.15,0,0,0,0,45.76V320.34a45.16,45.16,0,0,0,4.87,20.13l156.9-157.41Z"/><path class="cls-1" d="M515.82,25.64,358.92,183.06l156.9,157.41a45.29,45.29,0,0,0,4.86-20.13V45.76A45.28,45.28,0,0,0,515.82,25.64Z"/></g></g></svg>