<svg xmlns="http://www.w3.org/2000/svg" viewBox="0 0 376.39 376.39"><defs><style>.cls-1{   stroke: #fff;
    stroke-width: 9px;
    fill: none;
}</style></defs><g id="Layer_2" data-name="Layer 2"><g id="Layer_1-2" data-name="Layer 1"><path class="cls-1" d="M364.29,271c-1-.81-75.72-54.65-96.22-50.78-9.79,1.73-15.38,8.4-26.61,21.76-1.81,2.16-6.15,7.33-9.53,11a159,159,0,0,1-20.71-8.43,171.94,171.94,0,0,1-79.31-79.31,156.41,156.41,0,0,1-8.43-20.72c3.69-3.38,8.86-7.72,11.07-9.58,13.3-11.17,20-16.76,21.72-26.57,3.55-20.33-50.25-95.53-50.82-96.21A28.7,28.7,0,0,0,84.06,0C62.26,0,0,80.76,0,94.36c0,.79,1.14,81.14,100.22,181.93,100.69,99,181,100.1,181.81,100.1,13.61,0,94.36-62.25,94.36-84.06A28.64,28.64,0,0,0,364.29,271Z"/></g></g></svg>