<svg xmlns="http://www.w3.org/2000/svg" viewBox="0 0 545.08 377.04"><defs><style>.cls-1{   stroke: #fff;
    stroke-width: 9px;
    fill: none;
}</style></defs><g id="Layer_2" data-name="Layer 2"><g id="Layer_1-2" data-name="Layer 1"><path class="cls-1" d="M0,371V.09c122.85,0,183.73-1.26,209.22,5.57Q241.1,14,262.6,42c27.77,36.11,26.54,96.91,9.1,129.66-15.77,29.61-42.38,48-70.33,54.14-32.9,6.51-81.62,5.31-126.49,5.31V371ZM74.88,62.83V168.08c75.88,0,105.47,2.45,123.59-24,12-17.59,11.77-45.42-3.42-62.23C176.07,60.82,155.33,62.83,74.88,62.83Z"/><path class="cls-1" d="M294.12,294.31l71.34-10.88c6.64,30.26,27,42.25,57.43,42.25,23.18,0,50.85-5.81,50.85-29.09,0-15.65-13.09-19.1-28.84-22.77q-86-19-109-34.66Q304,217.41,304,178.7q0-34.92,27.57-58.69t85.51-23.78c58.7,0,102.5,14.09,118.9,71.08l-67,12.4q-4.31-15.68-16.32-24c-18.31-12.72-60.34-9.65-74.5-.51-10.1,7-11.25,19.65-1,27.32,20.58,15.18,108.54,20.71,145.72,51.61q22.26,19,22.26,52.88,0,36.93-30.86,63.5T422.89,377Q368,377,336,354.78T294.12,294.31Z"/></g></g></svg>