<svg xmlns="http://www.w3.org/2000/svg" viewBox="0 0 457.63 366.11"><defs><style>.cls-1{   stroke: #fff;
    stroke-width: 9px;
    fill: none;
}</style></defs><g id="Layer_2" data-name="Layer 2"><g id="Layer_1-2" data-name="Layer 1"><path class="cls-1" d="M402.92,63.67H355.16L328.8,23.88C318.85,9,301.44,0,283.53,0H174.1c-17.91,0-35.32,9-45.27,23.88L102.47,63.67H54.72A54.56,54.56,0,0,0,0,118.39v193a54.56,54.56,0,0,0,54.72,54.72h348.2a54.56,54.56,0,0,0,54.71-54.72v-193A54.55,54.55,0,0,0,402.92,63.67ZM228.82,321.34A123.35,123.35,0,0,1,105.45,198c0-68.15,55.22-122.87,123.37-122.87A123.35,123.35,0,0,1,352.18,198.47C352.18,266.12,297,321.34,228.82,321.34ZM396,140.77H374.06a16.18,16.18,0,0,1,0-32.33H394a16.14,16.14,0,0,1,16.91,15.42A15.74,15.74,0,0,1,396,140.77Z"/><path class="cls-1" d="M228.82,129.83a68.78,68.78,0,0,0-68.65,68.64c0,37.81,30.84,68.15,68.65,68.15A68.78,68.78,0,0,0,297.46,198C297.46,160.17,266.62,129.83,228.82,129.83Z"/></g></g></svg>