<svg xmlns="http://www.w3.org/2000/svg" viewBox="0 0 487.65 350.44"><defs><style>.cls-1{   stroke: #fff;
    stroke-width: 9px;
    fill: none;
}</style></defs><g id="Layer_2" data-name="Layer 2"><g id="Layer_1-2" data-name="Layer 1"><path class="cls-1" d="M0,350.44V0H113.54q64.54,0,84.15,5.26,30.12,7.89,50.44,34.3t20.31,68.25q0,32.26-11.71,54.26T227,196.61q-18,12.55-36.69,16.62-25.35,5-73.39,5H70.76V350.44ZM70.76,59.28v99.44h38.72q41.83,0,55.94-5.49A46.49,46.49,0,0,0,187.53,136q8-11.72,8-27.26,0-19.11-11.24-31.55a49,49,0,0,0-28.44-15.54q-12.68-2.39-50.92-2.39Z"/><path class="cls-1" d="M390.36,350.44H323.18V96.57h62.39v36.1q16-25.57,28.81-33.71a53,53,0,0,1,29-8.12q22.95,0,44.23,12.67l-20.8,58.56q-17-11-31.55-11-14.12,0-23.91,7.77T396,186.93q-5.61,20.32-5.61,85.1Z"/></g></g></svg>