<svg xmlns="http://www.w3.org/2000/svg" viewBox="0 0 372.06 376.39"><defs><style>.cls-1{   
    stroke-width: 4px;
    fill: #fff;
}</style></defs><g id="Layer_2" data-name="Layer 2"><g id="Layer_1-2" data-name="Layer 1"><path class="cls-1" d="M.55,375.62a.66.66,0,0,1-.34-.55C-.9,346.18,2.33,318,10.93,290.13c17.51-56.76,55.2-95.32,107.86-119.39,22.52-10.3,46.82-17.36,70.94-23.33,42-10.39,80.16-28.49,116.33-51.65,33.21-21.27,50.48-52.12,55.57-90.54a9.33,9.33,0,0,1,1.9-4.94.65.65,0,0,1,1,0c1.24,1.56,2.88,3.07,3.05,4.74,1.73,16.21,5.45,32.64,4.18,48.65-5.1,64.26-38,112.8-89.69,149.22-41.83,29.49-88.78,47.45-138.75,57.72-24.22,5-48.16,10.68-71,20.63-26.88,11.71-44,32.55-55.67,58.42-4.57,10.14-7.37,21.06-11.13,31.57a26.41,26.41,0,0,1-2.86,4.9.66.66,0,0,1-.86.23Zm10-45.4c1-2.36,2-4.71,3.06-7.07C22.67,302,35.84,283.67,53.55,269c36-29.79,78-46.91,123.84-53.26,41.84-5.8,82.21-15.42,119.77-35.14,5.7-3,11.86-6,16.23-10.49,29.18-30.21,48.42-65.57,53.11-107.86,1.74-15.66,1.64-25.42,3.25-41.09-.54-2.54-.52-6.22-1.19-6.36-2.69,8.7-2.93,17.89-4.7,26.77-9.44,47.29-37.88,80-80.61,99.68-20.59,9.47-43,15.34-65.11,21C178,172.66,138.63,184.68,102,204.68,51.61,232.16,23.66,275.85,10.55,330.22ZM298.07,182.8c-1.37.6-2.77,1.15-4.11,1.81-33.17,16.3-68,27.07-104.76,31.31A270.67,270.67,0,0,0,78,254c-6.24,3.8-12.14,8.15-19.18,13a.65.65,0,0,0,.27,1.18c1.09.16,1.46.26,1.7.12,1.59-.88,3.13-1.84,4.64-2.85,14.28-9.5,29.81-16.39,46.8-18.24,22.71-2.49,45.58-3.37,68.35-5.29,8.23-.69,16.85-1.11,24.46-3.91,13.37-4.92,26.31-11.17,39.07-17.59C263.83,210.46,282.48,198.73,298.07,182.8Zm-180.29,9.67.17.41a.64.64,0,0,0,.8.37l4.91-1.68c25.21-8.75,50.26-18,75.68-26.09,20-6.36,40.74-10.54,60.75-16.93C301.75,135.23,334.2,110.47,353,70a103.08,103.08,0,0,0,9.79-42.72,6.14,6.14,0,0,0-2,3.08c-9.41,32-28.88,56.17-57.77,72.46-21,11.85-43.1,21.88-63.79,34.24-30.52,18.24-62.9,32-96.28,43.71-8.5,3-16.57,7.22-24.83,10.92A.64.64,0,0,0,117.78,192.47Zm110.8-50.29a.65.65,0,0,0-.44-1.21c-27.12,7.82-54.58,14.59-81.44,23.21-41.91,13.44-76.54,37.43-103.93,72.39C24.1,260.4,15.84,287.89,9.31,316.41a11.05,11.05,0,0,0,2.15-4.11c13.63-52.88,46.32-90.77,93.86-115.63,22.91-12,47.64-20.45,71.42-30.81C194.15,158.28,211.28,150,228.58,142.18Zm-40,102.6a.65.65,0,0,0-.19-1.28c-20.71,1.27-41.52,1.46-62.15,3.52-50,5-85.25,31.51-108.07,75.58a13.72,13.72,0,0,0-.77,2.83A110.89,110.89,0,0,0,25.9,314c10-14.28,21.85-27.23,38.19-33.57,21.23-8.24,43.15-14.84,65.06-21.15C148.73,253.64,168.78,249.68,188.57,244.78Z"/></g></g></svg>