<svg xmlns="http://www.w3.org/2000/svg" viewBox="0 0 430.92 377.04"><defs></defs><g id="Layer_2" data-name="Layer 2"><g id="Layer_1-2" data-name="Layer 1"><g id="lrcwdE.tif"><path class="cls-1" d="M297.69,0h7.9a2.39,2.39,0,0,0,.65.26C320,1.59,329.53,9.05,335.92,21c5.56,10.36,7.82,21.64,8.75,33.21,1.36,16.87-.25,33.57-3.42,50.14-.86,4.51-1.86,9-2.81,13.59.73.23,1.4.46,2.08.66a251.23,251.23,0,0,1,37.81,14.38c13.3,6.43,25.94,13.9,36.64,24.24,6.88,6.65,12.57,14.11,15,23.6.35,1.37.63,2.76.95,4.15v6.46a2.07,2.07,0,0,0-.28.63,39,39,0,0,1-6.84,17.16c-6.19,9.17-14.42,16.25-23.47,22.44-17.88,12.23-37.63,20.46-58.19,26.9l-2.84.88c.1.52.15.82.22,1.1,3.78,15.81,6.23,31.79,6.33,48.09.08,12.93-1.15,25.68-5.44,38-2.87,8.24-7,15.76-13.65,21.58-9.57,8.33-20.9,10-33,8.32C282.91,375,272.88,371,263.24,366c-16.58-8.65-31.08-20.13-44.68-32.84-.78-.72-1.54-1.45-2.34-2.2-.62.58-1.11,1-1.58,1.46a219.56,219.56,0,0,1-23.84,19.86c-13.35,9.55-27.46,17.64-43.41,22.05-8.73,2.42-17.6,3.56-26.61,1.85-12.52-2.37-21.12-9.87-26.82-21-6-11.58-7.94-24.12-8.44-36.93-.64-16.36,1.32-32.48,4.8-48.43.68-3.13,1.4-6.25,2.08-9.3-.29-.18-.39-.27-.49-.31-2.57-.81-5.14-1.59-7.69-2.43-18.18-6-35.6-13.61-51.55-24.33-9.39-6.31-18-13.51-24.61-22.81C3.65,204.46.55,197.72.06,190s2-14.84,6.14-21.34c5.59-8.78,13.18-15.6,21.56-21.58C44.28,135.31,62.69,127.43,81.81,121c3.61-1.2,7.26-2.28,10.94-3.43-.12-.61-.19-1.08-.3-1.54-5-21-8.07-42.17-6.26-63.82A85.28,85.28,0,0,1,92.64,25C100,8.16,113.06-.24,131,.45A74.69,74.69,0,0,1,154.56,5.6c16.23,6.14,30.6,15.44,44,26.24,5.86,4.71,11.46,9.76,17.31,14.76l2.07-2a221.19,221.19,0,0,1,34.6-27.3C263.26,10.63,274.45,5,286.78,2,290.36,1.11,294.05.65,297.69,0ZM215.6,257,252,255.58c1.24-.05,2.32-.14,3.18-1.46a579.76,579.76,0,0,0,36.91-64.34,2.81,2.81,0,0,0,.13-2.82,573,573,0,0,0-37.36-64.08,3.11,3.11,0,0,0-2.1-1.2c-7.82-.47-15.65-.94-23.48-1.2a474.55,474.55,0,0,0-51.29,1.2,2.79,2.79,0,0,0-1.81,1.09,500.75,500.75,0,0,0-37.28,64.72,2.76,2.76,0,0,0-.05,2.11,503.68,503.68,0,0,0,37.61,64.94,2.66,2.66,0,0,0,1.82,1.06C190.56,256.12,202.88,256.56,215.6,257ZM97.22,243c.24-.55.36-.76.43-1a472.79,472.79,0,0,1,20.06-52.32,3.32,3.32,0,0,0-.14-2.47,458.76,458.76,0,0,1-19.35-50.29c-.2-.6-.46-1.18-.79-2-7.81,2.73-15.55,5.2-23.12,8.12-14.2,5.49-27.8,12.2-39.91,21.58-5.6,4.34-10.76,9.15-14.11,15.56-1.6,3.06-2.66,6.27-1.89,9.81A39.22,39.22,0,0,0,25,204.71c3.36,4.64,7.87,8,12.44,11.27,12.22,8.79,25.7,15.16,39.8,20.26C83.8,238.62,90.46,240.71,97.22,243Zm237.13-1.06c3.41-1.1,6.61-2.06,9.76-3.15,17.06-5.91,33.48-13.13,48.29-23.63,6.37-4.52,12.31-9.55,16.62-16.17,5.2-8,5-14.54-.48-22.25-4.74-6.63-11-11.62-17.68-16.11-13.85-9.29-29-15.95-44.67-21.34-4.17-1.43-8.39-2.69-12.64-4-.23.59-.41,1-.53,1.35a417,417,0,0,1-19.65,50.38,2.91,2.91,0,0,0,.2,2.83A428.56,428.56,0,0,1,331,232C332.1,235.19,333.16,238.41,334.35,241.91ZM110.13,264.73a9.08,9.08,0,0,0-.28,1c-1.74,9.39-3.82,18.73-5.11,28.19a118.5,118.5,0,0,0,.49,38.05c1.32,7.1,3.39,13.94,8,19.72a15.13,15.13,0,0,0,7.62,5.39,37.92,37.92,0,0,0,25.28-1.15,162.31,162.31,0,0,0,54.71-35.43c.88-.86,1.78-1.69,2.74-2.6l-1.8-2a408.46,408.46,0,0,1-32.45-40.15,6.9,6.9,0,0,0-5.82-3.18,366.44,366.44,0,0,1-40.16-5.26C119,266.46,114.58,265.59,110.13,264.73ZM229,318c.3.32.56.65.86.92,4.85,4.27,9.58,8.69,14.58,12.77,11.39,9.31,23.55,17.41,37.3,22.9,6.58,2.64,13.37,4.56,20.55,4.39,4.91-.12,9.39-1.32,12.95-5.12A38.49,38.49,0,0,0,324.32,339c2.29-7.31,2.64-14.93,3.14-22.49a150.6,150.6,0,0,0-3.61-43.11c-.69-3.07-1.37-6.14-2.07-9.23-.53.06-.83.06-1.12.12a413.11,413.11,0,0,1-54.53,8.44,3.61,3.61,0,0,0-2.87,1.67c-7.53,10.05-15,20.12-22.74,30C236.9,309.12,232.87,313.46,229,318ZM110.18,113.22l5.67-1.2a437.45,437.45,0,0,1,49.63-7.43,3,3,0,0,0,2.4-1.51,420.86,420.86,0,0,1,27.67-35c2.44-2.77,4.91-5.5,7.53-8.43-4.69-4.06-9.16-8.13-13.83-11.94-11.8-9.65-24.35-18.14-38.51-24-6.6-2.74-13.38-4.78-20.59-5.12-8.93-.42-15.68,3-19.84,11.08a43.85,43.85,0,0,0-1.88,4.06c-3.14,8-4.25,16.29-4.62,24.74a166.92,166.92,0,0,0,2.59,36.26C107.49,100.8,108.89,106.91,110.18,113.22Zm210.59.09c.53-2.29,1.08-4.42,1.52-6.57,3.87-18.65,6.12-37.41,3.76-56.47-.95-7.63-2.72-15-6.57-21.82-4.53-8-11.48-11.1-20.43-10.33a57.39,57.39,0,0,0-15.3,3.63c-14.27,5.37-26.82,13.64-38.58,23.15-5.81,4.69-11.33,9.73-17,14.62.35.47.47.67.63.85a440.39,440.39,0,0,1,34.71,43.18,2.9,2.9,0,0,0,1.9,1,447.49,447.49,0,0,1,45.21,6.71ZM317.12,246.4,303,209.27l-25.24,43.89A365.66,365.66,0,0,0,317.12,246.4Zm-101,58.47a357,357,0,0,0,24.66-30.3h-50A386.26,386.26,0,0,0,216.13,304.87ZM128.3,210l-13.8,37.6,39.23,6.35ZM215.66,72.13l-25.35,30.33h50.44Zm61.91,51.63,25,43.18A365.23,365.23,0,0,0,316,130.45Zm-162.79,6.61,13.53,36.79c8.39-14.57,16.57-28.75,25-43.36Z"/><path class="cls-1" d="M215.38,227A38.51,38.51,0,1,1,254,188.53,38.41,38.41,0,0,1,215.38,227Z"/></g></g></g></svg>