<svg xmlns="http://www.w3.org/2000/svg" viewBox="0 0 670.35 505.22"><defs><style>.cls-1{   stroke: #fff;
    stroke-width: 9px;
    fill: none;
}</style></defs><g id="Layer_2" data-name="Layer 2"><g id="Layer_1-2" data-name="Layer 1"><path class="cls-1" d="M13.29,263.83c74.09-23.78,159.39.27,224.64,119.44,5.8,11.47,13.41,8.57,13-3,1.38-12-.41-62.62-32.07-107.41-1.11-2.35,0-3.59,1.8-5.25,7.46-5.53,62.21-17.14,123.59-61.1,4.7-3.18,25.16-13,21.84-42C355.85,92.68,298.62,44,282.72,34.21s-14.24,7.32-14,9.95c-2.91,55.43-19.5,137-78.8,192.57-21.15-5.94-28.62-21-28.62-21s80-104.37,59.31-187.73c-5.39-23.51-11.89-31.8-38-26.41S94.3,26.46,94.3,26.46,84.62,30.2,92.22,40,136.6,86.88,106.6,190.42c-27.24-9.26-87.23-20.74-93.18-4.42S-13.39,263.13,13.29,263.83Z"/><path class="cls-1" d="M653.9,236.87c-16.73,15.9-109.63,85.43-144.74,95.25s-41.34-8-36.22-12.31c3-3.18,81.28-87.64-5.53-42.16-31.8,11.75-62.9-14.24-69.4-37.33-13.82-44.09-13.41-52.8-44.65-25.85-16.87,14-46.86,28.9-58.34,33-34.28,8.16-48,46.59-20.18,50.46s42.85-.55,35.25,7.47-18.8,15.06-6.08,22.11,36.91,24.06,38.29,25.72,12.58,3,15.9-5.12.41-10.37-1.8-11.61.14-4.84,5.53-4.29,18-4.28,21-6.49,39-8.16,47.83,4.28c-9.95,3.18-12.85-3.31-26.95,1.66-7.74,3-26.54,5.39-35.39,25.3-6.64,14.93-9.13,45.76-36.08,37.05S277.6,377,281.89,350s2.49-44.79-12.72-45.76c-.83,4.29,3.73,29.45,0,50.32C263.09,370,261,379.39,273,388.8s102.3,52,155.11,108.65c20.18,20.6,30.41-5,15.48-16.86-4.15-4.56-23.36-21.71-22.95-27.65s11.48,5.53,15.49,9.81C425.11,440.5,449.3,412,475,444.09c10.51,10.09,3.18,34.15-5.8,40.64,9.81-9.81-7.33-34.42-21-20.73-7.05,6.77,12.44,22.26,16.73,26s19.91-9.13,25.3-18.11c4-5.53,9.81-10.23,18.11-46.31,2.62-9.4,6.08-12.72,14.37-21S652.65,294.24,666.2,251.38C674.36,228.85,670.62,221,653.9,236.87ZM336.63,339c-1.66-1.8-5.94-6.5-18.94-13.83-3-7.88,4-8.84,7.47-8.7s17.28,9.67,21.15,16.58C347.28,341.52,338.29,340.69,336.63,339Z"/></g></g></svg>