<svg xmlns="http://www.w3.org/2000/svg" viewBox="0 0 619.63 372.7"><defs><style>.cls-1{fill:#fff;fill-rule:evenodd;}</style></defs><g id="Layer_2" data-name="Layer 2"><g id="Layer_1-2" data-name="Layer 1"><path class="cls-1" d="M112.35,338.91v6.68c0,5.4,1.8,10.18,8.85,10.18,5.19,0,7.46-4.66,7.46-9.44,0-7.9-6.57-10.9-12.37-14.44-6.85-3.89-12.64-7.53-16.8-12.29S93,309,93,300.73C93,283,103.77,274,121,274c19.36,0,29.21,12.82,28.18,30.51H128.66c-.26-5.51,0-13.05-7.33-13.55-4.54-.38-7.18,2.15-7.7,6.27-.64,5.66,2.28,8.55,6.69,11.56,8.34,5.29,15.54,8.55,20.74,13.31s8.2,11.07,8.2,22.5c0,18.08-10.11,28.12-28.56,28.12-20.36,0-28.92-11.29-28.92-23.72V338.91Z"/><path class="cls-1" d="M155.64,322.23c0-18.1,10.75-24.13,26.28-24.13,17.7,0,26.28,8.28,26.28,24.13v28.62c-1,15.95-11,21.85-26.28,21.85-14.41,0-26.28-5.77-26.28-21.85V322.23Zm20.11,29.88c.36,4,2,6.15,6.17,6.15s5.8-2.13,6.2-6.15V320.7c0-4.5-1.52-8.16-6.2-8.16s-6.17,3.66-6.17,8.16v31.41Z"/><polygon class="cls-1" points="216.03 276.26 236.14 276.26 236.14 370.41 216.03 370.41 216.03 276.26 216.03 276.26"/><path class="cls-1" d="M246.14,300.1h20v70.31h-20V300.1Zm0-40.83h20v17h-20v-17Z"/><path class="cls-1" d="M308.59,370.42v-8.14h-.23c-3.69,6.8-9.75,10.42-15.68,10.42-14.66-.5-17.57-14.19-17.57-26.12V322.23c0-11.06,3.92-24.13,17.2-24.13,5.32,0,10.47,2.26,14.62,8.42h.27V276.26h20.1v94.16Zm-13.38-25.35c0,4.16,0,11.31,5.79,11.31,5.44,0,6.2-5.39,6.2-12.19V327.61c0-6-.9-13.31-5.83-13.16-6.41,0-6.16,7.91-6.16,12.43v18.19Z"/><path class="cls-1" d="M365.08,370.42h-13l-20.19-94.16h11.62l12.35,64.93c1.15,6.39,2,12.92,2.82,21.71h.24c.88-7.27,1.63-14.18,3-21l13.89-65.68h13l12.55,64.93c1.09,6.27,1.85,12.55,2.74,21.71h.27c.87-7.27,1.63-14.18,3-21l13.75-65.68h11.64l-22.24,94.16h-13l-12.63-63.9a178.9,178.9,0,0,1-2.79-22.73h-.26a215,215,0,0,1-3,22.73l-13.78,63.9Z"/><path class="cls-1" d="M455.07,372.32c-15.15,0-25.13-9-25.13-39.17,0-21.12,7.82-34.43,25.13-34.43s25.17,13.31,25.17,34.43c0,30.24-9.75,39.17-25.17,39.17Zm0-65.17c-10.21,0-14.78,8-14.78,29.15,0,16.44,3.17,27.62,14.78,27.62,11.87,0,14.77-11.18,14.77-27.62,0-21.14-4.27-29.15-14.77-29.15Z"/><path class="cls-1" d="M499.13,312h.25c4.16-9.16,10.11-13,20.58-12.15v9.79c-12.89-2.27-20.48,5.76-20.48,18.44v42.31h-10v-69.8h9.63V312Z"/><polygon class="cls-1" points="527.13 370.42 527.13 276.26 537.08 276.26 537.08 333.15 561.34 300.63 573.22 300.63 551.52 327.75 573.86 370.42 562.25 370.42 544.66 335.66 537.08 345.59 537.08 370.42 527.13 370.42 527.13 370.42"/><path class="cls-1" d="M607.36,319.34c.39-8.3-2.61-12.19-11.12-12.19-7.07,0-11.11,3.28-11.11,10.56,0,9,7.46,10.17,14.3,13,10.08,4.55,20.2,7,20.2,20.1,0,13.32-9.35,21.61-23.78,21.47-6.18.14-13.74-2-17.43-7.27-4.16-5.52-3.92-10.17-3.92-14.95H584c-.38,8.54,2.52,13.82,11.84,13.82,8.13,0,13.43-3.28,13.43-11.81,0-9.91-10.11-10.8-17.32-13.82-10.86-4-17.19-7.65-17.19-19.82s8.48-19.75,20.61-19.75c13.9,0,22,6.31,21.72,20.62Z"/><path class="cls-1" d="M133.72,135.93c-37.6-11.05-78.59-1.45-84.84.2-9.47,2.49-15,5-14.62,8,.29,2.18,2.71,3.68,14.34,3.39,27.73-.67,50.7.27,65.22,4.31,18,5,20.19,14.19,11.29,32.28-4.12,8.35-10.21,17-19.43,26.17-18.41,18.36-41.42,30.3-54.38,36.82-12.61,6.36-17.22,3-15.82-3.29C37.21,236.09,73,174.59,73,174.59c2.69-4.67,3.17-9.06,0-10.37-2.71-1.15-7.62,2.64-12.73,8.51C39.37,196.82.87,270.11.16,272.52s1.11,2.59,1.8,2.61c16.29-.13,116.34-29.54,148.62-89.64,17-31.65,8.4-42.13-16.86-49.56Z"/><path class="cls-1" d="M183.55,107c-20.2,17.36,9.76,46,23.84,62.36,13.72,15.94,30.31,36.18,31.09,43.13.35,3.18-.29,6.8-4.13,9.17-6.27,3.89-32.18,7.65-85.77,7.61-11.63,0-14,1.11-14.29,3.19-.17,1.08-.53,3.59,14.26,7.28.41.11,61.42,11.26,94,0,33.24-11.27,24.88-30.3,18.92-41.29-9.18-16.94-51.55-66.17-55.05-72.86-3.26-6.27,1.5-9,1.5-9s7.08-8.47,63.57-8c11.64.08,14.06-1.13,14.33-3.21.23-1.72-3.09-5.46-14.16-7.82-10.45-2.23-63.84-11.39-88.07,9.43Z"/><path class="cls-1" d="M110.68,4.77c-4.5,1.31-13.58,3.8-12.81,7.09C98.36,14,100.16,15,110.71,15c23.59,0,41.92,1.49,54.48,3.73,25.54,4.58,19.52,17.39,12.27,29.65-17.61,29.85-65.19,63.43-67.95,65.33-3.63,2.48-1.64,3.93,1.53,2.76,38.57-14.26,77.44-38.85,93.14-68.73,13.31-25.33,3.77-37.35-16.53-43-36.23-10.13-73.8-.85-77,.08Z"/></g></g></svg>