<svg xmlns="http://www.w3.org/2000/svg" viewBox="0 0 376.39 376.39"><defs><style>.cls-1{   stroke: #fff;
    stroke-width: 9px;
    fill: none;
}</style></defs><g id="Layer_2" data-name="Layer 2"><g id="Layer_1-2" data-name="Layer 1"><path class="cls-1" d="M365.37,0H320.52a11,11,0,0,0-11,11v11H219.25a32.89,32.89,0,0,0-62.1,0H66.9V11a11,11,0,0,0-11-11H11A11,11,0,0,0,0,11V55.14a11,11,0,0,0,11,11H55.87a11,11,0,0,0,11-11V44h45.29c-38.27,23.91-63.51,65.9-66.52,112.93a33,33,0,1,0,22,.5C71.44,105,108,60.76,158.92,48.15a32.81,32.81,0,0,0,58.56,0C268.37,60.76,305,105,308.72,157.39a33.17,33.17,0,1,0,22-.5c-3-47-28.25-88.87-66.52-112.78H309.5v11a11,11,0,0,0,11,11h44.85a11,11,0,0,0,11-11V11A11,11,0,0,0,365.37,0Z"/><path class="cls-1" d="M263.22,362.72c-5.77-17.65-22.39-31.17-41.94-31.17H155.12c-19.56,0-36.18,13.52-41.94,31.17-2.23,6.8,3.56,13.67,10.72,13.67H252.49C259.65,376.39,265.44,369.52,263.22,362.72Z"/><path class="cls-1" d="M285.59,226.19,199.22,96.64V201.25a33.08,33.08,0,1,1-22.05,0V96.64L90.8,226.19a11,11,0,0,0,1.38,13.91c20.25,20.25,33.19,46.32,38.18,74.3a65.61,65.61,0,0,1,24.76-4.9h66.16A65.6,65.6,0,0,1,246,314.4c5-28,17.94-54,38.18-74.3A11,11,0,0,0,285.59,226.19Z"/><path class="cls-1" d="M188.2,221.28a11,11,0,1,0,11,11A11,11,0,0,0,188.2,221.28Z"/></g></g></svg>