<svg xmlns="http://www.w3.org/2000/svg" viewBox="0 0 366.11 366.11"><defs><style>.cls-1{fill:#606060;}</style></defs><g id="Layer_2" data-name="Layer 2"><g id="Layer_1-2" data-name="Layer 1"><path class="cls-1" d="M270.9,210.37c-.71-.34-27.4-13.49-32.15-15.19a18.32,18.32,0,0,0-6.21-1.38c-3.61,0-6.64,1.8-9,5.33-2.67,4-10.74,13.39-13.23,16.21-.33.37-.77.82-1,.82s-4.37-1.7-5.62-2.24c-28.63-12.44-50.36-42.35-53.34-47.39a2.84,2.84,0,0,1-.45-1.06,8.52,8.52,0,0,1,1.56-1.84c1.46-1.44,3-3.34,4.56-5.17.72-.87,1.44-1.74,2.15-2.56a29.1,29.1,0,0,0,4.34-6.88l.59-1.21a12.43,12.43,0,0,0-.36-11.71c-.63-1.26-11.9-28.46-13.1-31.32-2.88-6.9-6.69-10.11-12-10.11-.49,0,0,0-2.06.09-2.5.11-16.15,1.9-22.19,5.71-6.4,4-17.23,16.9-17.23,39.52,0,20.36,12.92,39.58,18.47,46.9.14.18.39.55.76,1.09,21.24,31,47.73,54,74.57,64.75C215.8,263.05,228,264.25,235,264.25h0a68.53,68.53,0,0,0,7.33-.44l1.31-.12c8.93-.79,28.55-11,33-23.37,3.52-9.76,4.45-20.44,2.11-24.31C277.16,213.37,274.39,212.05,270.9,210.37Z"/><path class="cls-1" d="M186.3,0C87.15,0,6.48,80.06,6.48,178.47a177.12,177.12,0,0,0,24.66,90.25L.25,359.82a4.76,4.76,0,0,0,4.5,6.29,4.71,4.71,0,0,0,1.44-.23l95-30.18a181.17,181.17,0,0,0,85.11,21.22c99.15,0,179.81-80.05,179.81-178.45S285.45,0,186.3,0Zm0,319.74a142.47,142.47,0,0,1-78.37-23.36,4.78,4.78,0,0,0-4.05-.56L56.29,311l15.36-45.32a4.77,4.77,0,0,0-.66-4.34,139.36,139.36,0,0,1-27.12-82.82c0-77.91,63.89-141.29,142.43-141.29s142.42,63.38,142.42,141.29S264.83,319.74,186.3,319.74Z"/></g></g></svg>